<svg xmlns="http://www.w3.org/2000/svg" width="30" height="25" viewBox="0 0 30 27">
  <defs>
    <style>
      .cls-1 {
        fill: #fff;
        fill-rule: evenodd;
      }
    </style>
  </defs>
  <path class="cls-1" d="M444.467,3724H421.533a3.54,3.54,0,0,1-3.055-5.31l11.467-19.92a3.521,3.521,0,0,1,6.11,0l11.467,19.92A3.54,3.54,0,0,1,444.467,3724ZM433,3698.76a1.745,1.745,0,0,0-1.533.89L420,3719.57a1.77,1.77,0,0,0,0,1.78,1.745,1.745,0,0,0,1.533.89h22.934a1.745,1.745,0,0,0,1.533-.89,1.77,1.77,0,0,0,0-1.78l-11.467-19.92A1.745,1.745,0,0,0,433,3698.76Zm-0.879,7.04h1.758v8.81h-1.758v-8.81ZM433,3718.73a1.175,1.175,0,1,1,1.172-1.18A1.178,1.178,0,0,1,433,3718.73Z" transform="translate(-418 -3697)"/>
</svg>
