<svg xmlns="http://www.w3.org/2000/svg" width="30" height="32" viewBox="0 0 30 36">
  <defs>
    <style>
      .cls-1 {
        fill: #fff;
        fill-rule: evenodd;
      }
    </style>
  </defs>
  <path id="app_store_icon" data-name="app store icon" class="cls-1" d="M447.548,534.234c-3.1,5.28-1.13,13.295,2.3,18.155,1.713,2.43,3.447,4.61,5.823,4.61l0.135,0a7.286,7.286,0,0,0,2.7-.706,7.53,7.53,0,0,1,3.2-.744,7.068,7.068,0,0,1,3.047.72,6.584,6.584,0,0,0,2.919.687c2.676-.049,4.319-2.4,5.769-4.479a19.691,19.691,0,0,0,2.527-5.076l0.01-.033a0.292,0.292,0,0,0-.16-0.361l-0.022-.01a7.541,7.541,0,0,1-4.648-6.888,7.729,7.729,0,0,1,3.731-6.473l0.029-.018A0.292,0.292,0,0,0,475,533.2a8.743,8.743,0,0,0-6.829-3.637c-0.195-.019-0.395-0.028-0.6-0.028a12.1,12.1,0,0,0-4.286,1.049,6.989,6.989,0,0,1-2.054.6,6.808,6.808,0,0,1-2.123-.609,10.457,10.457,0,0,0-3.743-.933h-0.1A9.209,9.209,0,0,0,447.548,534.234ZM468.173,521a8.437,8.437,0,0,0-5.533,2.784,7.614,7.614,0,0,0-1.988,5.711,0.3,0.3,0,0,0,.275.255c0.128,0.01.259,0.015,0.389,0.015a7.14,7.14,0,0,0,5.223-2.627,8.016,8.016,0,0,0,1.946-5.875A0.3,0.3,0,0,0,468.173,521Z" transform="translate(-446 -521)"/>
</svg>
