<svg xmlns="http://www.w3.org/2000/svg" width="22.719" height="38.031" viewBox="0 0 22.719 38.031">
  <defs>
    <style>
      .cls-1 {
        fill: #ff00a6;
        fill-rule: evenodd;
      }
    </style>
  </defs>
  <path class="cls-1" d="M23.175,11.059L13.255,1.3a1.37,1.37,0,0,0-1.886,0L1.3,11.2a1.277,1.277,0,0,0,0,1.826l0.286,0.282a1.327,1.327,0,0,0,1.856,0l7.1-6.988V37.229a1.722,1.722,0,0,0,3.443,0V6.237l7.042,6.93a1.532,1.532,0,0,0,2.142,0A1.474,1.474,0,0,0,23.175,11.059Z" transform="translate(-0.938 -0.906)"/>
</svg>
