<svg xmlns="http://www.w3.org/2000/svg" width="22.969" height="38" viewBox="0 0 22.969 38">
  <defs>
    <style>
      .cls-1 {
        fill: #ff00a6;
        fill-rule: evenodd;
      }
    </style>
  </defs>
  <path class="cls-1" d="M23.513,28.856L13.47,38.61a1.4,1.4,0,0,1-1.909,0l-10.189-9.9a1.264,1.264,0,0,1,0-1.825l0.29-.282a1.357,1.357,0,0,1,1.879,0l7.189,6.983V2.707a1.744,1.744,0,0,1,3.486,0V33.674l7.129-6.924a1.566,1.566,0,0,1,2.169,0A1.459,1.459,0,0,1,23.513,28.856Z" transform="translate(-1 -1)"/>
</svg>
