<svg xmlns="http://www.w3.org/2000/svg" width="30" height="25" viewBox="0 0 30 32">
  <defs>
    <style>
      .cls-1 {
        fill: #fff;
        fill-rule: evenodd;
      }
    </style>
  </defs>
  <path id="icon" class="cls-1" d="M446.321,3548.13h-2.142v-0.53a1.608,1.608,0,0,0-3.215,0v0.53h-5.357v-0.53a1.607,1.607,0,0,0-3.214,0v0.53h-5.357v-0.53a1.607,1.607,0,0,0-3.214,0v0.53h-2.143A2.679,2.679,0,0,0,419,3550.8v24.53a2.673,2.673,0,0,0,2.679,2.67h24.642a2.673,2.673,0,0,0,2.679-2.67V3550.8A2.679,2.679,0,0,0,446.321,3548.13Zm-4.285-.53a0.536,0.536,0,0,1,1.071,0v3.2a0.536,0.536,0,0,1-1.071,0v-3.2Zm-0.97,3.74a1.6,1.6,0,0,0,3.011,0A1.608,1.608,0,1,1,441.066,3551.34Zm-7.6-3.74a0.536,0.536,0,0,1,1.072,0v3.2a0.536,0.536,0,0,1-1.072,0v-3.2Zm-0.97,3.74a1.6,1.6,0,0,0,3.012,0,1.582,1.582,0,0,1,.1.53A1.607,1.607,0,1,1,432.494,3551.34Zm-7.6-3.74a0.536,0.536,0,0,1,1.071,0v3.2a0.536,0.536,0,0,1-1.071,0v-3.2Zm-0.97,3.74a1.6,1.6,0,0,0,3.011,0,1.6,1.6,0,1,1-3.112.53A1.582,1.582,0,0,1,423.923,3551.34Zm24.006,23.99a1.6,1.6,0,0,1-1.608,1.6H421.679a1.6,1.6,0,0,1-1.608-1.6v-18.66h27.858v18.66Zm0-19.73H420.071v-4.8a1.606,1.606,0,0,1,1.608-1.6h2.143v0.54a2.655,2.655,0,0,0-.935,2.97,2.68,2.68,0,0,0,5.083,0,2.656,2.656,0,0,0-.934-2.97v-0.54h5.357v0.54a2.653,2.653,0,0,0-.934,2.97,2.679,2.679,0,0,0,5.082,0,2.653,2.653,0,0,0-.934-2.97v-0.54h5.357v0.54a2.656,2.656,0,0,0-.934,2.97,2.68,2.68,0,0,0,5.083,0,2.656,2.656,0,0,0-.934-2.97v-0.54h2.142a1.606,1.606,0,0,1,1.608,1.6v4.8Zm-26.25,3.2h0.535a0.535,0.535,0,1,0,0-1.07h-0.535A0.535,0.535,0,1,0,421.679,3558.8Zm2.678,0h0.536a0.535,0.535,0,1,0,0-1.07h-0.536A0.535,0.535,0,1,0,424.357,3558.8Zm2.679,0h0.536a0.535,0.535,0,1,0,0-1.07h-0.536A0.535,0.535,0,1,0,427.036,3558.8Zm2.678,0h0.536a0.535,0.535,0,1,0,0-1.07h-0.536A0.535,0.535,0,1,0,429.714,3558.8Zm2.679,0h0.536a0.535,0.535,0,1,0,0-1.07h-0.536A0.535,0.535,0,1,0,432.393,3558.8Zm2.678,0h0.536a0.535,0.535,0,1,0,0-1.07h-0.536A0.535,0.535,0,1,0,435.071,3558.8Zm2.679,0h0.536a0.535,0.535,0,1,0,0-1.07H437.75A0.535,0.535,0,1,0,437.75,3558.8Zm2.678,0h0.536a0.535,0.535,0,1,0,0-1.07h-0.536A0.535,0.535,0,1,0,440.428,3558.8Zm2.679,0h0.536a0.535,0.535,0,1,0,0-1.07h-0.536A0.535,0.535,0,1,0,443.107,3558.8Zm2.679,0h0.535a0.535,0.535,0,1,0,0-1.07h-0.535A0.535,0.535,0,1,0,445.786,3558.8Zm-13.153,1.8-8.263,12.89a1.493,1.493,0,0,0-.054,1.55,1.63,1.63,0,0,0,1.419.83h16.53a1.631,1.631,0,0,0,1.419-.83,1.5,1.5,0,0,0-.054-1.55l-8.265-12.89A1.643,1.643,0,0,0,432.633,3560.6Zm1.367,0.33a0.548,0.548,0,0,1,.462.25l8.265,12.88a0.449,0.449,0,0,1,.017.47,0.527,0.527,0,0,1-.479.27h-16.53a0.547,0.547,0,0,1-.479-0.27,0.449,0.449,0,0,1,.017-0.47l8.265-12.88A0.548,0.548,0,0,1,434,3560.93Zm0,9.6a1.6,1.6,0,0,0,1.607-1.6v-3.73a1.607,1.607,0,0,0-3.214,0v3.73A1.6,1.6,0,0,0,434,3570.53Zm-0.536-5.33a0.536,0.536,0,0,1,1.072,0v3.73a0.536,0.536,0,1,1-1.072,0v-3.73Zm0.536,9.07a1.6,1.6,0,1,0-1.607-1.6A1.606,1.606,0,0,0,434,3574.27Zm0-2.14a0.535,0.535,0,1,1-.536.54A0.537,0.537,0,0,1,434,3572.13Z" transform="translate(-419 -3546)"/>
</svg>
