<svg xmlns="http://www.w3.org/2000/svg" width="20" height="20" viewBox="0 0 20 20">
  <defs>
    <style>
      .cls-1 {
        fill: #353535;
        fill-rule: evenodd;
      }
    </style>
  </defs>
  <path id="icon" class="cls-1" d="M1122.98,5688.15a1.492,1.492,0,0,0-.23-0.8l-0.14-.22,1.49-1.49,0.22,0.14a1.506,1.506,0,0,0,1.6,0l0.22-.14,1.49,1.49-0.14.22a1.49,1.49,0,1,0,2.52,0l-0.14-.22,7.62-7.53,0.22,0.14a1.528,1.528,0,0,0,.8.24,1.49,1.49,0,1,0-1.49-1.49,1.531,1.531,0,0,0,.07.47l0.07,0.18-7.75,7.66-0.19-.07a1.613,1.613,0,0,0-.94,0l-0.19.07-1.62-1.62,0.07-.19a1.491,1.491,0,1,0-2.91-.47,1.257,1.257,0,0,0,.08.47l0.06,0.19-1.62,1.62-0.19-.07A1.488,1.488,0,1,0,1122.98,5688.15Zm15.53-10.59a0.925,0.925,0,1,1-.93.93A0.935,0.935,0,0,1,1138.51,5677.56Zm-9.76,9.66a0.925,0.925,0,1,1-.93.93A0.928,0.928,0,0,1,1128.75,5687.22Zm-3.63-3.62a0.925,0.925,0,1,1-.93.92A0.926,0.926,0,0,1,1125.12,5683.6Zm-4.56,4.55a0.93,0.93,0,1,1,.93.92A0.928,0.928,0,0,1,1120.56,5688.15Zm19.15-6.32a0.273,0.273,0,0,0-.19.08c-0.56.56-10.77,10.67-10.77,10.67l-0.23-.23-3.2-3.2a0.29,0.29,0,0,0-.4,0l-3.63,3.63a0.279,0.279,0,0,0-.08.2v3.74a0.286,0.286,0,0,0,.28.28h18.23a0.286,0.286,0,0,0,.28-0.28v-14.61A0.286,0.286,0,0,0,1139.71,5681.83Zm-14.87,14.61h-3.07v-3.35l3.07-3.06v6.41Zm3.63,0h-3.07v-6.41l3.07,3.06v3.35Zm3.67,0h-3.11v-3.35l3.11-3.05v6.4Zm3.55,0h-2.99v-6.97l2.99-2.94v9.91Zm3.75,0h-3.2v-10.47l3.2-3.19v13.66Z" transform="translate(-1120 -5677)"/>
</svg>
