<svg xmlns="http://www.w3.org/2000/svg" width="58" height="59" viewBox="0 0 58 58">
  <defs>
    <style>
      .cls-1 {
        fill: #fff;
        fill-rule: evenodd;
      }
    </style>
  </defs>
  <path id="icon" class="cls-1" d="M823.262,1970.67a6.075,6.075,0,0,0-5.263,9.12l0.815,1.41H806.662l0.815-1.41a6.079,6.079,0,1,0-5.263,3.04h21.048A6.08,6.08,0,1,0,823.262,1970.67Zm-21.048,10.53a4.445,4.445,0,1,1,4.443-4.45A4.454,4.454,0,0,1,802.214,1981.2Zm21.048,0a4.445,4.445,0,1,1,4.444-4.45A4.455,4.455,0,0,1,823.262,1981.2Zm15.9-35.2H810.984a7.84,7.84,0,0,0-7.835,7.83v6.32h-6.2a7.9,7.9,0,0,0-7.952,7.83v17.54a7.9,7.9,0,0,0,6.381,7.68l0.752,0.15v9.83a0.813,0.813,0,0,0,.455.73,0.771,0.771,0,0,0,.363.09,0.809,0.809,0,0,0,.5-0.17l13.813-10.47h17.265a7.848,7.848,0,0,0,7.835-7.84v-2.69h2.806A7.84,7.84,0,0,0,847,1975v-21.17A7.84,7.84,0,0,0,839.165,1946Zm0,35.2h-2.806v-13.22a7.84,7.84,0,0,0-7.835-7.83H804.786v-6.32a6.2,6.2,0,0,1,6.2-6.19h28.181a6.2,6.2,0,0,1,6.2,6.19V1975A6.2,6.2,0,0,1,839.165,1981.2Zm-10.641,10.52h-17.54a0.811,0.811,0,0,0-.5.17l-12.719,9.64v-8.99a0.821,0.821,0,0,0-.818-0.82,6.343,6.343,0,0,1-6.315-6.2v-17.54a6.334,6.334,0,0,1,6.315-6.19h31.572a6.2,6.2,0,0,1,6.2,6.19v17.54A6.2,6.2,0,0,1,828.524,1991.72Z" transform="translate(-789 -1946)"/>
</svg>
