<svg xmlns="http://www.w3.org/2000/svg" width="59" height="59" viewBox="0 0 59 59">
  <defs>
    <style>
      .cls-1 {
        fill: #ff00a6;
        fill-rule: evenodd;
      }
    </style>
  </defs>
  <path id="icon" class="cls-1" d="M557.6,1945H507.4a4.4,4.4,0,0,0-4.4,4.4v35.92a4.4,4.4,0,0,0,4.4,4.4h17.01v5.48h-2.736a4.4,4.4,0,0,0-4.4,4.4v3.57a0.831,0.831,0,0,0,.833.83h28.786a0.831,0.831,0,0,0,.833-0.83v-3.57a4.4,4.4,0,0,0-4.4-4.4h-2.736v-5.48H557.6a4.4,4.4,0,0,0,4.4-4.4V1949.4A4.4,4.4,0,0,0,557.6,1945Zm-14.274,51.86a2.741,2.741,0,0,1,2.735,2.74v2.73H518.939v-2.73a2.742,2.742,0,0,1,2.736-2.74h21.65Zm-17.248-1.66v-5.48h12.846v5.48H526.077Zm34.258-9.88a2.742,2.742,0,0,1-2.736,2.74H507.4a2.742,2.742,0,0,1-2.736-2.74v-2.73h55.67v2.73Zm0-4.4h-55.67V1949.4a2.742,2.742,0,0,1,2.736-2.74h50.2a2.742,2.742,0,0,1,2.736,2.74v31.52Zm-11.22-26.88a0.842,0.842,0,0,0-.438-0.12,0.807,0.807,0,0,0-.372.09l-9.338,4.67-0.25-1.22a4.312,4.312,0,0,0-1.275-2.26,4.525,4.525,0,0,0-3.158-1.28H519.891a4.409,4.409,0,0,0-4.4,4.4v10.94a4.411,4.411,0,0,0,4.4,4.41h14.393a4.57,4.57,0,0,0,3.158-1.28,4.34,4.34,0,0,0,1.275-2.27l0.25-1.21,9.338,4.67a0.807,0.807,0,0,0,.372.09,0.852,0.852,0,0,0,.438-0.13,0.828,0.828,0,0,0,.395-0.71v-18.08A0.841,0.841,0,0,0,549.115,1954.04Zm-11.976,15.22a2.833,2.833,0,0,1-2.855,2.74H519.891a2.742,2.742,0,0,1-2.736-2.74v-10.94a2.734,2.734,0,0,1,2.736-2.73h14.393a2.832,2.832,0,0,1,2.855,2.73v10.94Zm10.706,2.23-9.041-4.52v-6.35l9.041-4.52v15.39Z" transform="translate(-503 -1945)"/>
</svg>
