<svg xmlns="http://www.w3.org/2000/svg" width="58" height="59" viewBox="0 0 58 58">
  <defs>
    <style>
      .cls-1 {
        fill: #ff00a6;
        fill-rule: evenodd;
      }
    </style>
  </defs>
  <path id="icon" class="cls-1" d="M1367.65,1978.32a4.281,4.281,0,0,0-.67-2.3l-0.41-.64,4.33-4.32,0.64,0.41a4.317,4.317,0,0,0,4.62,0l0.64-.41,4.33,4.32-0.41.64a4.325,4.325,0,1,0,7.31,0l-0.4-.63,22.1-21.84,0.63,0.41a4.313,4.313,0,1,0-2.01-3.65,4.167,4.167,0,0,0,.22,1.36l0.18,0.55-22.46,22.19-0.55-.18a4.345,4.345,0,0,0-2.73,0l-0.55.18-4.69-4.68,0.18-.55a4.211,4.211,0,0,0,.22-1.36,4.325,4.325,0,0,0-8.65,0,4.222,4.222,0,0,0,.23,1.36l0.18,0.55-4.69,4.68-0.55-.18a4.227,4.227,0,0,0-1.37-.22A4.315,4.315,0,1,0,1367.65,1978.32Zm45.02-30.69a2.685,2.685,0,1,1-2.69,2.68A2.691,2.691,0,0,1,1412.67,1947.63Zm-28.3,28.01a2.685,2.685,0,1,1-2.69,2.68A2.691,2.691,0,0,1,1384.37,1975.64Zm-10.52-10.5a2.685,2.685,0,1,1-2.69,2.68A2.689,2.689,0,0,1,1373.85,1965.14Zm-13.22,13.18a2.7,2.7,0,1,1,2.69,2.69A2.689,2.689,0,0,1,1360.63,1978.32Zm55.54-18.32a0.773,0.773,0,0,0-.56.24c-1.63,1.61-31.23,30.94-31.23,30.94l-0.66-.66-9.3-9.27a0.8,0.8,0,0,0-.57-0.24,0.843,0.843,0,0,0-.58.24l-10.52,10.5a0.8,0.8,0,0,0-.24.58v10.85a0.815,0.815,0,0,0,.81.82h52.86a0.824,0.824,0,0,0,.82-0.82v-42.36A0.827,0.827,0,0,0,1416.17,1960Zm-43.14,42.37h-8.89v-9.7l8.89-8.88v18.58Zm10.53,0h-8.89v-18.58l8.89,8.88v9.7Zm10.65,0h-9.02v-9.7l9.02-8.86v18.56Zm10.29,0h-8.68v-20.2l8.68-8.52v28.72Zm10.87,0h-9.26v-30.35l9.26-9.26v39.61Z" transform="translate(-1359 -1946)"/>
</svg>
