<svg xmlns="http://www.w3.org/2000/svg" width="59" height="59" viewBox="0 0 57 49">
  <defs>
    <style>
      .cls-1 {
        fill: #ff00a6;
        fill-rule: evenodd;
      }
    </style>
  </defs>
  <path id="icon" class="cls-1" d="M1085.15,1972.51h10.57a0.785,0.785,0,1,0,0-1.57h-10.57A0.785,0.785,0,1,0,1085.15,1972.51Zm0,7.57h10.57a0.79,0.79,0,1,0,0-1.58h-10.57A0.79,0.79,0,1,0,1085.15,1980.08Zm45.85-20.5a0.757,0.757,0,0,0-.24-0.56l-4.87-4.79a0.793,0.793,0,0,0-.57-0.23,0.827,0.827,0,0,0-.57.23l-8.79,8.64-0.64-.46a27.749,27.749,0,0,0-16.15-5.02,28.252,28.252,0,0,0-17.56,6.02,18.764,18.764,0,0,0,.03,30.2,28.252,28.252,0,0,0,17.53,6,28.846,28.846,0,0,0,8.31-1.2l0.31-.09,11.77,4.62a0.717,0.717,0,0,0,.29.06,0.845,0.845,0,0,0,.51-0.17,0.826,0.826,0,0,0,.29-0.75l-1.8-10.6,0.28-.33a19.161,19.161,0,0,0,4.97-12.65,18.652,18.652,0,0,0-2.22-8.73l-0.32-.59,9.2-9.04A0.757,0.757,0,0,0,1131,1959.58Zm-8.5,18.92a17.425,17.425,0,0,1-5.1,12.18,0.787,0.787,0,0,0-.2.67l1.63,9.61-10.72-4.21a0.717,0.717,0,0,0-.29-0.06,0.783,0.783,0,0,0-.26.04,27.06,27.06,0,0,1-8.39,1.3c-12.99,0-23.56-8.76-23.56-19.53s10.57-19.54,23.56-19.54a25.919,25.919,0,0,1,14.75,4.41l0.9,0.62-11.32,11.12a1.154,1.154,0,0,0-.15.2l-4.67,9.18h-13.53a0.785,0.785,0,1,0,0,1.57h14.02a0.821,0.821,0,0,0,.43-0.12l0.04-.03,9.66-4.75a0.853,0.853,0,0,0,.21-0.14l10.9-10.71,0.55,1.19A16.673,16.673,0,0,1,1122.5,1978.5Zm-18.21-1.5,3.3,3.24-6.6,3.25Zm4.65,2.34-3.74-3.67,15.25-14.98,3.74,3.68Zm16.38-16.09-3.74-3.67,3.74-3.68,3.74,3.68Z" transform="translate(-1074 -1954)"/>
</svg>
