<svg xmlns="http://www.w3.org/2000/svg" width="17" height="18" viewBox="0 0 17 18">
  <defs>
    <style>
      .cls-1 {
        fill-rule: evenodd;
      }
    </style>
  </defs>
  <path id="load_icon" data-name="load icon" class="cls-1" d="M1007.92,2139.99a2.105,2.105,0,1,1-2.09,2.11A2.1,2.1,0,0,1,1007.92,2139.99Zm0,15.47a1.265,1.265,0,1,1-1.25,1.27A1.261,1.261,0,0,1,1007.92,2155.46Zm-5.13-13.11a1.89,1.89,0,1,1-1.88,1.89A1.88,1.88,0,0,1,1002.79,2142.35Zm10.25,11.18a1.055,1.055,0,1,1-1.04,1.05A1.05,1.05,0,0,1,1013.04,2153.53Zm-12.37-5.8a1.685,1.685,0,1,1-1.673,1.68A1.675,1.675,0,0,1,1000.67,2147.73Zm14.5,0.84a0.84,0.84,0,1,1-.84.84A0.845,0.845,0,0,1,1015.17,2148.57Zm-13.41,4.97a1.491,1.491,0,0,0,0,2.09,1.455,1.455,0,0,0,2.06,0,1.491,1.491,0,0,0,0-2.09A1.446,1.446,0,0,0,1001.76,2153.54Zm11.28-9.93a0.63,0.63,0,1,1-.62.63A0.627,0.627,0,0,1,1013.04,2143.61Z" transform="translate(-999 -2140)"/>
</svg>
