<svg xmlns="http://www.w3.org/2000/svg" width="30" height="25" viewBox="0 0 30 23">
  <defs>
    <style>
      .cls-1 {
        fill: #fff;
        fill-rule: evenodd;
      }
    </style>
  </defs>
  <path id="icon" class="cls-1" d="M444.907,3483a0.925,0.925,0,0,1-.645-0.27l0-.01a15.009,15.009,0,0,0-3.5-2.52,0.977,0.977,0,0,1-.518-0.87v-4.4l-0.249-.08a18.692,18.692,0,0,0-6-.98,18.937,18.937,0,0,0-5.991.97l-0.249.09v4.4a0.974,0.974,0,0,1-.518.86,15.546,15.546,0,0,0-3.495,2.52l-0.006.01a0.924,0.924,0,0,1-.644.27,0.911,0.911,0,0,1-.655-0.28l-3.167-3.3a0.918,0.918,0,0,1-.272-0.67,1.009,1.009,0,0,1,.269-0.68,20.83,20.83,0,0,1,29.456,0,1.03,1.03,0,0,1,.275.69,0.96,0.96,0,0,1-.272.67l-3.168,3.3A0.906,0.906,0,0,1,444.907,3483ZM426.6,3462.05v5.18h-1.2V3460h6.958v1.25h-4.988l6.628,6.88,7.678-7.98,0.771,0.81L434,3469.73Z" transform="translate(-419 -3460)"/>
</svg>
