<svg xmlns="http://www.w3.org/2000/svg" width="29" height="32" viewBox="0 0 29 32">
  <defs>
    <style>
      .cls-1 {
        fill: #ff8c91;
        fill-rule: evenodd;
      }
    </style>
  </defs>
  <path id="google_play_store_icon" data-name="google play store icon" class="cls-1" d="M727.661,536.718l-23.684-13.373A2.67,2.67,0,0,0,702.66,523l-0.027,0c-0.062,0-.122,0-0.183.008l-0.082.008c-0.048,0-.1.012-0.143,0.019-0.017,0-.034.005-0.051,0.008h0a2.669,2.669,0,0,0-.851.31A2.621,2.621,0,0,0,700,525.626v26.747a2.621,2.621,0,0,0,1.324,2.271,2.693,2.693,0,0,0,.851.31h0c0.015,0,.031,0,0.046.006q0.076,0.014.153,0.021l0.077,0.008c0.06,0,.12.007,0.18,0.008h0.03a2.669,2.669,0,0,0,1.317-.345l23.684-13.373A2.622,2.622,0,0,0,729,539h0A2.622,2.622,0,0,0,727.661,536.718Zm-9.366-2.656-2.355,3.053-5.991-7.766Zm8.218,5.234-16.564,9.353,10.371-13.44,6.192,3.5A0.338,0.338,0,0,1,726.513,539.3Z" transform="translate(-700 -523)"/>
</svg>
