<svg xmlns="http://www.w3.org/2000/svg" width="20" height="20" viewBox="0 0 20 20">
  <defs>
    <style>
      .cls-1 {
        fill: #353535;
        fill-rule: evenodd;
      }
    </style>
  </defs>
  <path id="icon" class="cls-1" d="M1135.73,5745.14a0.485,0.485,0,1,0-.49.49A0.489,0.489,0,0,0,1135.73,5745.14Zm-3.51,0a0.485,0.485,0,1,0-.49.49A0.489,0.489,0,0,0,1132.22,5745.14Zm3.22,2.75a4.555,4.555,0,1,0,4.56,4.55A4.554,4.554,0,0,0,1135.44,5747.89Zm0,8.14a3.59,3.59,0,1,1,3.59-3.59A3.593,3.593,0,0,1,1135.44,5756.03Zm1.17-4.07h-0.68v-1.17a0.485,0.485,0,0,0-.97,0v1.65a0.489,0.489,0,0,0,.48.49h1.17A0.485,0.485,0,1,0,1136.61,5751.96Zm0.49-13.35h-1.37v-1.13a0.485,0.485,0,0,0-.97,0v1.13h-4.32v-1.13a0.48,0.48,0,0,0-.96,0v1.13h-4.28v-1.13a0.485,0.485,0,0,0-.97,0v1.13h-1.33a2.9,2.9,0,0,0-2.9,2.9v12.59a2.9,2.9,0,0,0,2.9,2.9h6.17a0.485,0.485,0,1,0,0-.97h-6.17a1.938,1.938,0,0,1-1.93-1.93v-12.59a1.938,1.938,0,0,1,1.93-1.93h1.33v1.13a0.485,0.485,0,0,0,.97,0v-1.13h4.28v1.13a0.48,0.48,0,0,0,.96,0v-1.13h4.32v1.13a0.485,0.485,0,0,0,.97,0v-1.13h1.37a1.938,1.938,0,0,1,1.93,1.93v4.6a0.485,0.485,0,0,0,.97,0v-4.6A2.9,2.9,0,0,0,1137.1,5738.61Zm-12.38,13.07a0.48,0.48,0,1,0,.48.48A0.482,0.482,0,0,0,1124.72,5751.68Zm3.51-3.51a0.485,0.485,0,1,0,.48.48A0.489,0.489,0,0,0,1128.23,5748.17Zm-3.51-3.51a0.485,0.485,0,1,0,.48.48A0.489,0.489,0,0,0,1124.72,5744.66Zm0,3.51a0.485,0.485,0,1,0,.48.48A0.489,0.489,0,0,0,1124.72,5748.17Zm3.51,3.51a0.48,0.48,0,1,0,.48.48A0.482,0.482,0,0,0,1128.23,5751.68Zm0-7.02a0.485,0.485,0,1,0,.48.48A0.489,0.489,0,0,0,1128.23,5744.66Z" transform="translate(-1120 -5737)"/>
</svg>
