<svg xmlns="http://www.w3.org/2000/svg" width="20" height="23" viewBox="0 0 20 23">
  <defs>
    <style>
      .cls-1 {
        fill: #353535;
        fill-rule: evenodd;
      }
    </style>
  </defs>
  <path id="icon" class="cls-1" d="M1136.46,5620.78c0.07,0,.13.02,0.19,0.02h0a3.4,3.4,0,1,0-3.34-3.61,3.663,3.663,0,0,0,.17,1.29l-7.96,4.8a3.365,3.365,0,1,0-2.18,5.95,3.262,3.262,0,0,0,2.07-.73l7.77,4.27a3.363,3.363,0,0,0,.29,2.39,3.321,3.321,0,0,0,2.97,1.84h0a3.175,3.175,0,0,0,1.53-.4,3.44,3.44,0,0,0,1.44-4.58,3.335,3.335,0,0,0-2.97-1.83,3.175,3.175,0,0,0-1.54.39,3.428,3.428,0,0,0-1,.81l-7.51-4.14a3.508,3.508,0,0,0,.05-2.72l7.87-4.73A3.2,3.2,0,0,0,1136.46,5620.78Zm-1.61-3.48a1.8,1.8,0,0,1,1.8-1.73h0.11A1.833,1.833,0,1,1,1134.85,5617.3Zm-13.31,8.55a1.805,1.805,0,1,1,1.8,1.83A1.812,1.812,0,0,1,1121.54,5625.85Zm14.06,6.12a1.745,1.745,0,0,1,.84-0.21,1.831,1.831,0,0,1,.84,3.45,1.734,1.734,0,0,1-.83.21h0a1.814,1.814,0,0,1-1.61-.99,1.839,1.839,0,0,1-.12-1.4A1.746,1.746,0,0,1,1135.6,5631.97Z" transform="translate(-1120 -5614)"/>
</svg>
