<svg xmlns="http://www.w3.org/2000/svg" width="20" height="22" viewBox="0 0 20 22">
  <defs>
    <style>
      .cls-1 {
        fill-rule: evenodd;
      }
    </style>
  </defs>
  <path id="icon" class="cls-1" d="M1133.64,5500.5a0.915,0.915,0,1,0-.91-0.92A0.915,0.915,0,0,0,1133.64,5500.5Zm3.57,13.51-1.55-.63a10,10,0,1,0-11.32,0l-1.56.63a1.554,1.554,0,0,0,.57,2.99h13.3A1.552,1.552,0,0,0,1137.21,5514.01Zm-0.57,2.07h-13.29a0.625,0.625,0,0,1-.62-0.63,0.613,0.613,0,0,1,.39-0.59l2.19-.89a9.244,9.244,0,0,0,1.36.61,0.458,0.458,0,0,0,.58-0.28,0.469,0.469,0,0,0-.28-0.59,9.076,9.076,0,1,1,6.06.01,0.454,0.454,0,0,0-.28.58,0.46,0.46,0,0,0,.43.31,0.4,0.4,0,0,0,.15-0.03,9.244,9.244,0,0,0,1.36-.61l2.19,0.89a0.613,0.613,0,0,1,.39.59A0.627,0.627,0,0,1,1136.64,5516.08Zm-1.19-10.08a5.45,5.45,0,1,0-5.45,5.5A5.48,5.48,0,0,0,1135.45,5506Zm-5.45,4.58a4.58,4.58,0,1,1,4.55-4.58A4.567,4.567,0,0,1,1130,5510.58Zm0-8.25a3.67,3.67,0,1,0,3.64,3.67A3.66,3.66,0,0,0,1130,5502.33Zm0,6.42a2.75,2.75,0,1,1,2.73-2.75A2.751,2.751,0,0,1,1130,5508.75Z" transform="translate(-1120 -5495)"/>
</svg>
