<svg xmlns="http://www.w3.org/2000/svg" width="20" height="20" viewBox="0 0 20 20">
  <defs>
    <style>
      .cls-1 {
        fill-rule: evenodd;
      }
    </style>
  </defs>
  <path id="icon" class="cls-1" d="M1124.96,5574a0.591,0.591,0,0,1-.59-0.59,1.34,1.34,0,0,1,1.6-1.27h0.16l0.47-1.16h-5.34a1.27,1.27,0,0,1-1.26-1.27v-12.09a1.27,1.27,0,0,1,1.26-1.27h9.75a0.26,0.26,0,0,1,0,.52h-9.75a0.749,0.749,0,0,0-.75.75v12.09a0.755,0.755,0,0,0,.75.75h17.47a0.758,0.758,0,0,0,.76-0.75v-9.41a0.248,0.248,0,0,1,.25-0.25,0.256,0.256,0,0,1,.26.25v9.41a1.272,1.272,0,0,1-1.27,1.27h-5.33l0.47,1.16h0.16a1.34,1.34,0,0,1,1.6,1.27,0.591,0.591,0,0,1-.59.59h-10.08Zm1.01-1.34c-0.72,0-1.09.25-1.09,0.75v0.07h10.24v-0.07c0-.5-0.37-0.75-1.09-0.75h-8.06Zm0.71-.52h6.63l-0.46-1.16h-5.7Zm-4.41-3.85a0.935,0.935,0,0,1-.93-0.93v-8.74a0.935,0.935,0,0,1,.93-0.93h8.74a0.26,0.26,0,1,1,0,.52h-8.74a0.406,0.406,0,0,0-.41.41v8.74a0.406,0.406,0,0,0,.41.41h15.46a0.406,0.406,0,0,0,.41-0.41v-7.06a0.26,0.26,0,0,1,.52,0v7.06a0.935,0.935,0,0,1-.93.93h-15.46Zm6.05,1.34a0.255,0.255,0,1,1,0-.51h3.36a0.255,0.255,0,1,1,0,.51h-3.36Zm5.35-2.68a0.109,0.109,0,0,1-.05-0.01h-7.24a0.109,0.109,0,0,1-.05.01,0.648,0.648,0,0,1-.56-0.33h0l-0.01-.01a0.277,0.277,0,0,1-.05-0.16v-0.1a0.2,0.2,0,0,1,.01-0.07h0v-0.01a1.383,1.383,0,0,1,1.22-1.23l0.76-.1a0.847,0.847,0,0,0,.17-0.04h0.01a1.176,1.176,0,0,0,.73-0.97v-0.21l-0.02-.02a2.423,2.423,0,0,1-.58-1.05l-0.01-.03-0.02-.02a1.06,1.06,0,0,1-.46-0.62l-0.01-.01h0a0.981,0.981,0,0,1,.34-1.35l0.09-.04v-0.04a1.661,1.661,0,0,1,1.61-1.5h0.57a1.65,1.65,0,0,1,1.6,1.49l0.01,0.05,0.07,0.03a0.979,0.979,0,0,1,.36,1.33v0.01h0a1.154,1.154,0,0,1-.47.65l-0.03.02-0.01.03a2.335,2.335,0,0,1-.57,1.03l-0.02.03v0.21a1.309,1.309,0,0,0,.89.97h0.01a0.01,0.01,0,0,0,.01.01,0.936,0.936,0,0,0,.16.04l0.93,0.1a1.373,1.373,0,0,1,1.22,1.23h0v0.01c0,0.02.01,0.04,0.01,0.07v0.1a0.277,0.277,0,0,1-.05.16l-0.01.01h0a0.648,0.648,0,0,1-.56.33h0Zm-5.43-1.65a1.345,1.345,0,0,1-.48.15l-0.76.1a0.892,0.892,0,0,0-.77.79v0.07l0.07,0.01a0.22,0.22,0,0,0,.08.01h7.23a0.248,0.248,0,0,0,.09-0.01l0.07-.01v-0.07a0.9,0.9,0,0,0-.76-0.79l-0.93-.1a2.048,2.048,0,0,1-.24-0.05h-0.01c0-.01-0.01-0.01-0.02-0.01a0.943,0.943,0,0,1-.23-0.1l-0.03-.01-0.04.01a3.936,3.936,0,0,1-1.55.31h-0.07a4.083,4.083,0,0,1-1.58-.31l-0.04-.01Zm0.86-1.12a1.581,1.581,0,0,1-.29.63l-0.08.1,0.12,0.03a4.307,4.307,0,0,0,2.06.01l0.13-.03-0.09-.1a1.621,1.621,0,0,1-.37-0.65l-0.02-.09-0.08.04a1.616,1.616,0,0,1-.65.14h0a1.69,1.69,0,0,1-.63-0.13l-0.08-.04Zm-1.13-2.44a1.616,1.616,0,0,0,.19.37l0.03,0.03h0.03a0.267,0.267,0,0,1,.25.22,1.36,1.36,0,1,0,2.72,0,0.266,0.266,0,0,1,.24-0.22h0.04l0.02-.03a1.14,1.14,0,0,0,.19-0.34,0.624,0.624,0,0,0,0-.62l-0.03-.06-0.07.02a0.2,0.2,0,0,1-.11.03,0.371,0.371,0,0,1-.14-0.04,0.266,0.266,0,0,1-.11-0.22v-0.17a1.149,1.149,0,0,0-1.1-1.16h-0.57a1.136,1.136,0,0,0-1.1,1.16v0.17a0.275,0.275,0,0,1-.12.22,0.326,0.326,0,0,1-.14.04,0.3,0.3,0,0,1-.1-0.02l-0.07-.03-0.03.06A0.618,0.618,0,0,0,1127.97,5561.74Zm5.73-1.47a0.53,0.53,0,0,1-.28-0.07,0.581,0.581,0,0,1-.32-0.53v-0.45h-0.41a0.6,0.6,0,0,1-.6-0.6v-4.03a0.593,0.593,0,0,1,.6-0.59h6.72a0.591,0.591,0,0,1,.59.59v4.03a0.6,0.6,0,0,1-.59.6h-3.96l-1.43.95A0.528,0.528,0,0,1,1133.7,5560.27Zm-1.09-1.57h0.41a0.6,0.6,0,0,1,.6.59v0.53l1.53-1.02a0.611,0.611,0,0,1,.33-0.1h4.01v-4.19h-6.88v4.19Zm1.09-2.84a0.26,0.26,0,1,1,0-.52h4.7a0.26,0.26,0,0,1,0,.52h-4.7Zm0,1.34a0.255,0.255,0,1,1,0-.51h4.7a0.255,0.255,0,1,1,0,.51h-4.7Z" transform="translate(-1120 -5554)"/>
</svg>
