<svg id="Header_Slider" data-name="Header &amp; Slider" xmlns="http://www.w3.org/2000/svg" width="35" height="30" viewBox="0 0 35 30">
  <defs>
    <style>
      .cls-1 {
        fill: #31333e;
        fill-rule: evenodd;
      }
    </style>
  </defs>
  <g id="Header">
    <g id="Phone_Cart" data-name="Phone &amp; Cart">
      <g id="Cart">
        <path id="Bg" class="cls-1" d="M34.993,25.961L33.271,6.567a0.789,0.789,0,0,0-.789-0.719H28.908a5.891,5.891,0,0,0-11.781,0H13.554a0.8,0.8,0,0,0-.789.719L11.042,25.961v0.072A4.245,4.245,0,0,0,15.512,30H30.53A4.245,4.245,0,0,0,35,26.033,0.223,0.223,0,0,0,34.993,25.961ZM23.025,1.58a4.323,4.323,0,0,1,4.312,4.269H18.705A4.325,4.325,0,0,1,23.025,1.58ZM30.53,28.411H15.512a2.687,2.687,0,0,1-2.891-2.35l1.65-18.632H17.12V9.987a0.789,0.789,0,1,0,1.579,0V7.429H27.33V9.987a0.789,0.789,0,1,0,1.579,0V7.429h2.848l1.65,18.632A2.663,2.663,0,0,1,30.53,28.411ZM9.206,12.661H3.8a0.79,0.79,0,0,0,0,1.581h5.41A0.79,0.79,0,0,0,9.206,12.661Zm0,3.851H0.789a0.791,0.791,0,0,0,0,1.581H9.206A0.791,0.791,0,0,0,9.206,16.512Zm0,3.852H3.8a0.79,0.79,0,0,0,0,1.581h5.41A0.79,0.79,0,0,0,9.206,20.364Z"/>
      </g>
    </g>
  </g>
</svg>
