<svg xmlns="http://www.w3.org/2000/svg" width="20" height="20" viewBox="0 0 20 20">
  <defs>
    <style>
      .cls-1 {
        fill: #9a9a9a;
        fill-rule: evenodd;
      }
    </style>
  </defs>
  <path id="Icon" class="cls-1" d="M1535,163.005a9.994,9.994,0,0,0,0,19.988,0.616,0.616,0,1,0,0-1.232,8.762,8.762,0,1,1,8.76-8.761,5.672,5.672,0,0,1-2.61,4.867,3.8,3.8,0,0,1-1.81.465,2.867,2.867,0,0,0,.97-0.937,1.764,1.764,0,0,0,.15-0.219,9.892,9.892,0,0,0,.34-1.54c0.15-.653-2.85-1.923-3.11-1.11a8.119,8.119,0,0,1-.43,1.5,0.628,0.628,0,0,1-.84-0.1c-0.69-.582-1.45-1.438-2.12-2.115h0l-0.06-.057a0.276,0.276,0,0,0-.05-0.056h0c-0.68-.669-1.54-1.431-2.12-2.117a0.636,0.636,0,0,1-.1-0.842,7.734,7.734,0,0,1,1.5-.426c0.81-.261-0.46-3.262-1.11-3.111a9.948,9.948,0,0,0-1.54.337,2.16,2.16,0,0,0-.22.147c-1.71,1.086-1.93,3.722-.26,5.686,0.64,0.751,1.3,1.478,1.99,2.187l-0.01,0,0.06,0.055c0.02,0.019.04,0.037,0.06,0.058v0a18.778,18.778,0,0,0,2.92,2.6c2.87,1.922,5.08,1.386,6.38.671a6.884,6.884,0,0,0,3.25-5.945A10,10,0,0,0,1535,163.005Z" transform="translate(-1525 -163)"/>
</svg>
