<svg xmlns="http://www.w3.org/2000/svg" width="15" height="20.97" viewBox="0 0 15 20.97">
  <defs>
    <style>
      .cls-1 {
        fill: #9a9a9a;
        fill-rule: evenodd;
      }
    </style>
  </defs>
  <path id="Icon" class="cls-1" d="M1833.2,6527.86a0.737,0.737,0,0,0,0,1.06,0.786,0.786,0,0,0,1.07,0l5.46-5.37v17.71a0.741,0.741,0,0,0,.75.74,0.758,0.758,0,0,0,.77-0.74v-17.71l5.45,5.37a0.786,0.786,0,0,0,1.07,0,0.72,0.72,0,0,0,0-1.06l-6.75-6.64a0.754,0.754,0,0,0-1.06,0Z" transform="translate(-1833 -6521.03)"/>
</svg>
