<svg id="Services" xmlns="http://www.w3.org/2000/svg" xmlns:xlink="http://www.w3.org/1999/xlink" width="130" height="115" viewBox="0 0 130 115">
  <defs>
    <filter id="filter" x="-9" y="0" width="274" height="304" filterUnits="userSpaceOnUse">
      <feOffset result="offset" dy="10" in="SourceAlpha"/>
      <feGaussianBlur result="blur" stdDeviation="3.162"/>
      <feFlood result="flood" flood-opacity="0.05"/>
      <feComposite result="composite" operator="in" in2="blur"/>
      <feBlend result="blend" in="SourceGraphic"/>
    </filter>
  </defs>
  <g id="Services-2" data-name="Services">
    <g id="_1" data-name="1">
      <g id="Voip_Analytics" data-name="Voip Analytics">
        <path id="Icon_Shape" data-name="Icon Shape"  opacity="0.051" class="cls-1" d="M127,109V-8.028H91V109H82V15.978H46V109H37V39.983H1V109H-8V66.99H-44V109h-3a3,3,0,0,0-3,3,3,3,0,0,0,3,3H127A3,3,0,0,0,127,109Zm-165,0V72.991h24V109H-38Zm45,0V45.985H31V109H7Zm45,0V21.979H76V109H52Zm45,0V-2.027h24V109H97ZM-25.91,25.97a2.985,2.985,0,0,0,1.5-.4L84.394-37.268l-6.81,14.974a3,3,0,0,0,1.488,3.973,2.944,2.944,0,0,0,1.242.27,3,3,0,0,0,2.733-1.758l10.686-23.5c0.033-.075.027-0.156,0.054-0.233a2.933,2.933,0,0,0,.132-0.48,2.2,2.2,0,0,0,.069-0.24c0-.036-0.012-0.066-0.009-0.1a3.121,3.121,0,0,0-.012-0.333A3.04,3.04,0,0,0,93.9-45.18a2.675,2.675,0,0,0-.069-0.342,3.169,3.169,0,0,0-.147-0.3c-0.039-.069-0.039-0.15-0.081-0.222s-0.114-.114-0.162-0.183a2.525,2.525,0,0,0-.186-0.277,2.79,2.79,0,0,0-.267-0.233,3.039,3.039,0,0,0-.384-0.3,2.777,2.777,0,0,0-.279-0.177c-0.033-.015-0.051-0.045-0.084-0.06-0.075-.033-0.156-0.028-0.231-0.054a2.84,2.84,0,0,0-.5-0.132,1.91,1.91,0,0,0-.222-0.066L65.6-50.023a2.987,2.987,0,0,0-3.276,2.695,3,3,0,0,0,2.694,3.277l16.368,1.587-108.8,62.836a3,3,0,0,0-1.1,4.1A3,3,0,0,0-25.91,25.97Z"/>
      </g>
    </g>
  </g>
</svg>
