<svg id="Services" xmlns="http://www.w3.org/2000/svg" width="86" height="60" viewBox="0 0 86 60">
  <defs>
  </defs>
  <g id="Services-2" data-name="Services">
    <g id="_2" data-name="2">
      <g id="PBX_SIM_Trunking" data-name="PBX/SIM Trunking">
        <g id="Content">
          <path id="Icon" class="cls-1" d="M71.489,28.817A14.207,14.207,0,0,0,67.211,18.6a14.572,14.572,0,0,0-10.234-4.269,14.912,14.912,0,0,0-7.485,2.058,15.385,15.385,0,0,0-4.2,3.812c-0.306-.228-0.687-0.533-0.993-0.762a20.5,20.5,0,0,0-25.052,1.3,20.926,20.926,0,0,0-6.645,10.9A14.23,14.23,0,0,0,14.282,60H52.7a16.28,16.28,0,0,0,11.533-4.8A16.114,16.114,0,0,0,68.968,43.76a14.592,14.592,0,0,0-.993-5.489,13.254,13.254,0,0,0,2.368-3.812A14.328,14.328,0,0,0,71.489,28.817ZM61.254,52.756a12.241,12.241,0,0,1-8.707,3.583H14.435A11.943,11.943,0,0,1,7.1,52.985a10.316,10.316,0,0,1-3.055-7.242A10,10,0,0,1,7.1,38.5a10.351,10.351,0,0,1,7.256-3.05,1.813,1.813,0,0,0,.917-0.229,1.87,1.87,0,0,0,.84-1.3A16.61,16.61,0,0,1,42.007,22.871a16.085,16.085,0,0,1,5.194,5.87,5.993,5.993,0,0,0-1.222.533,15.833,15.833,0,0,0-5.5,4.041,1.946,1.946,0,0,0,2.9,2.592,12.313,12.313,0,0,1,17.872-.533A12.316,12.316,0,0,1,61.254,52.756Zm5.575-19.9a14.25,14.25,0,0,1-.764,1.525,15.539,15.539,0,0,0-1.757-2.059A16.174,16.174,0,0,0,52.853,27.6a9.242,9.242,0,0,0-1.451.076,19.279,19.279,0,0,0-3.055-4.727,10.964,10.964,0,0,1,3.284-3.2,10.507,10.507,0,0,1,16.039,9A10.721,10.721,0,0,1,66.83,32.858ZM77.522,8.385a1.939,1.939,0,0,0-2.749,0l-4.2,4.194a1.942,1.942,0,0,0,2.75,2.744l4.2-4.193A1.93,1.93,0,0,0,77.522,8.385ZM57.13,0a1.955,1.955,0,0,0-1.986,1.906V7.851a1.986,1.986,0,0,0,3.972,0V1.982A2.02,2.02,0,0,0,57.13,0ZM43.611,12.579l-4.2-4.194a1.942,1.942,0,1,0-2.75,2.745l4.2,4.193A1.942,1.942,0,0,0,43.611,12.579Zm40.4,14.256H78.133a1.982,1.982,0,1,0,0,3.964h5.881A2.02,2.02,0,0,0,86,28.817,1.97,1.97,0,0,0,84.014,26.835ZM77.522,46.428l-4.2-4.192a1.942,1.942,0,0,0-2.75,2.744l4.2,4.193A1.943,1.943,0,0,0,77.522,46.428Z"/>
        </g>
      </g>
    </g>
  </g>
</svg>
