<svg id="Services" xmlns="http://www.w3.org/2000/svg" xmlns:xlink="http://www.w3.org/1999/xlink" width="113" height="76" viewBox="0 0 113 76">
  <defs>
    <filter id="filter" x="-9" y="0" width="274" height="304" filterUnits="userSpaceOnUse">
      <feOffset result="offset" dy="10" in="SourceAlpha"/>
      <feGaussianBlur result="blur" stdDeviation="3.162"/>
      <feFlood result="flood" flood-opacity="0.05"/>
      <feComposite result="composite" operator="in" in2="blur"/>
      <feBlend result="blend" in="SourceGraphic"/>
    </filter>
  </defs>
  <g id="Services-2" data-name="Services">
    <g id="_2" data-name="2">
      <g id="PBX_SIM_Trunking" data-name="PBX/SIM Trunking">
        
        <path id="Icon" class="cls-1" opacity="0.051" d="M99.627,10.518a29.882,29.882,0,0,0-8.952-21.453A30.453,30.453,0,0,0,69.254-19.9a31.117,31.117,0,0,0-15.666,4.322A32.247,32.247,0,0,0,44.8-7.574c-0.639-.48-1.439-1.121-2.078-1.6A42.254,42.254,0,0,0,18.259-16.86,42.524,42.524,0,0,0-9.716-6.453,43.963,43.963,0,0,0-23.624,16.441a29.487,29.487,0,0,0-17.584,8.485A29.652,29.652,0,0,0-50,46.06a29.934,29.934,0,0,0,8.792,21.133,29.561,29.561,0,0,0,21.1,8.8H60.3a34.136,34.136,0,0,0,34.05-34.1,30.734,30.734,0,0,0-2.078-11.526,27.871,27.871,0,0,0,4.956-8.006A30.178,30.178,0,0,0,99.627,10.518ZM78.206,60.79a25.575,25.575,0,0,1-18.224,7.524H-19.787A24.951,24.951,0,0,1-35.134,61.27a21.7,21.7,0,0,1-6.394-15.21,21.042,21.042,0,0,1,6.394-15.21,21.632,21.632,0,0,1,15.187-6.4,3.793,3.793,0,0,0,1.918-.48,3.929,3.929,0,0,0,1.759-2.721A34.879,34.879,0,0,1-4.6.111,34.446,34.446,0,0,1,18.1-8.215,34.67,34.67,0,0,1,37.922-1.97a33.731,33.731,0,0,1,10.87,12.328,12.368,12.368,0,0,0-2.558,1.12,33.13,33.13,0,0,0-11.51,8.485A4.078,4.078,0,1,0,40.8,25.407,25.754,25.754,0,1,1,78.206,60.79ZM89.876,19a29.85,29.85,0,0,1-1.6,3.2A32.724,32.724,0,0,0,84.6,17.882,33.79,33.79,0,0,0,60.622,7.956a19.384,19.384,0,0,0-3.037.16A40.53,40.53,0,0,0,51.19-1.81a22.96,22.96,0,0,1,6.874-6.724,21.844,21.844,0,0,1,11.51-3.2,22.1,22.1,0,0,1,15.666,6.4,22.161,22.161,0,0,1,6.394,15.69A22.577,22.577,0,0,1,89.876,19Zm22.38-51.392a4.047,4.047,0,0,0-5.755,0l-8.792,8.805a4.062,4.062,0,0,0,0,5.763,4.047,4.047,0,0,0,5.755,0l8.792-8.8A4.062,4.062,0,0,0,112.256-32.39ZM69.574-50a4.1,4.1,0,0,0-4.156,4V-33.51a4.236,4.236,0,0,0,4.156,4.163A4.236,4.236,0,0,0,73.73-33.51V-45.838A4.235,4.235,0,0,0,69.574-50ZM41.279-23.584L32.487-32.39a4.046,4.046,0,0,0-5.755,0,4.063,4.063,0,0,0,0,5.764l8.792,8.8a4.046,4.046,0,0,0,5.755,0A4.062,4.062,0,0,0,41.279-23.584ZM125.844,6.355H113.535a4.235,4.235,0,0,0-4.156,4.163,4.235,4.235,0,0,0,4.156,4.163h12.309A4.235,4.235,0,0,0,130,10.518,4.13,4.13,0,0,0,125.844,6.355ZM112.256,47.5L103.464,38.7a4.073,4.073,0,1,0-5.755,5.764l8.792,8.806A4.073,4.073,0,0,0,112.256,47.5Z"/>
      </g>
    </g>
  </g>
</svg>
