<svg id="Services" xmlns="http://www.w3.org/2000/svg" width="68" height="60" viewBox="0 0 68 60">
  <defs>
  </defs>
  <g id="Services-2" data-name="Services">
    <g id="_2" data-name="2">
      <g id="VOIP_Drive" data-name="VOIP Drive">
        <g id="Content">
          <path id="Icon" class="cls-1" d="M67.792,39.807L44.778,0.576A1.207,1.207,0,0,0,43.743,0H23.03A1.458,1.458,0,0,0,21.994.46L0.131,37.384a1.349,1.349,0,0,0,0,1.154L10.324,58.98a1.033,1.033,0,0,0,.163.442,1.281,1.281,0,0,0,.363.35,1.044,1.044,0,0,0,.673.227H56.4a1.208,1.208,0,0,0,1.036-.577L67.793,40.961A1.051,1.051,0,0,0,67.792,39.807ZM64.8,39.23H45.584L33.776,18.064a1.044,1.044,0,0,0-.16-0.411L25.034,2.307H43.052Zm-21.907,0H23l9.574-18.519ZM22.993,3.522l4.674,8.387L31.2,18.346,20.153,39.657a1.482,1.482,0,0,0-.115.149L11.513,56.286l-9.08-18.21ZM55.71,57.691H13.453L21.8,41.537h43Z"/>
        </g>
      </g>
    </g>
  </g>
</svg>
