<svg id="Services" xmlns="http://www.w3.org/2000/svg" width="56" height="60" viewBox="0 0 56 60">
  <defs>
  </defs>
  <g id="Services-2" data-name="Services">
    <g id="_1" data-name="1">
      <g id="Call_Center" data-name="Call Center">
        <g id="Content">
          <path id="Icon" class="cls-1" d="M48.369,22.814V20.508A21.165,21.165,0,0,0,42.915,6.049,18.743,18.743,0,0,0,28.956,0H27.068a18.743,18.743,0,0,0-13.959,6.05A21.165,21.165,0,0,0,7.655,20.508v2.307A8.252,8.252,0,0,0,0,31.058v3.605a8.237,8.237,0,0,0,8.193,8.256h4.616a1.511,1.511,0,0,0,1.5-1.513V24.3a1.511,1.511,0,0,0-1.5-1.513H10.657V20.508c0-9.971,7.055-17.483,16.4-17.483h1.889c9.356,0,16.4,7.512,16.4,17.483v2.281H43.191a1.511,1.511,0,0,0-1.5,1.513V41.394a1.512,1.512,0,0,0,1.5,1.513h2.1c-0.613,7.891-6,9.718-8.506,10.135a5.282,5.282,0,0,0-5.016-3.668H28.018a5.313,5.313,0,0,0,0,10.626h3.765a5.286,5.286,0,0,0,5.078-3.908,14.119,14.119,0,0,0,5.091-1.752c2.714-1.6,5.929-4.866,6.354-11.446A8.239,8.239,0,0,0,56,34.65v-3.6A8.21,8.21,0,0,0,48.369,22.814ZM11.332,39.882H8.218A5.215,5.215,0,0,1,3.027,34.65v-3.6a5.215,5.215,0,0,1,5.191-5.232h3.115V39.882ZM31.783,56.974H28.018a2.282,2.282,0,0,1,0-4.563h3.765A2.282,2.282,0,0,1,31.783,56.974ZM53.01,34.65a5.215,5.215,0,0,1-5.191,5.231H44.7V25.814h3.115a5.215,5.215,0,0,1,5.191,5.232v3.6Z"/>
        </g>
      </g>
    </g>
  </g>
</svg>
