<svg id="Services" xmlns="http://www.w3.org/2000/svg" width="60" height="60" viewBox="0 0 60 60">
  <defs>
  </defs>
  <g id="Services-2" data-name="Services">
    <g id="_2" data-name="2">
      <g id="VFAX">
        <g id="Content">
          <path id="Icon" class="cls-1" d="M50,32a5,5,0,1,0-5-5A5.005,5.005,0,0,0,50,32Zm0-8a3,3,0,1,1-3,3A3,3,0,0,1,50,24ZM18,9H36a1,1,0,1,0,0-2H18A1,1,0,1,0,18,9Zm24,3H18a1,1,0,1,0,0,2H42A1,1,0,1,0,42,12Zm0,31H18a1,1,0,1,0,0,2H42A1,1,0,1,0,42,43Zm0,5H18a1,1,0,0,0,0,2H42A1,1,0,0,0,42,48Zm9-31V0H9V17H0V51H6v3H9v6H51V54h3V51h6V17H51ZM11,2H49V17H11V2ZM9,19H58V35H2V19H9ZM8,52V45a1,1,0,0,0-2,0v4H2V37H9V52H8Zm41,6H11V37H49V58Zm5-9V45a1,1,0,0,0-2,0v7H51V37h7V49H54ZM6,24H9a1,1,0,1,0,0-2H6A1,1,0,1,0,6,24Zm0,4H9a1,1,0,1,0,0-2H6A1,1,0,1,0,6,28Zm0,4H9a1,1,0,1,0,0-2H6A1,1,0,1,0,6,32Zm7-8h3a1,1,0,0,0,0-2H13A1,1,0,1,0,13,24Zm0,4h3a1,1,0,0,0,0-2H13A1,1,0,1,0,13,28Zm0,4h3a1,1,0,1,0,0-2H13A1,1,0,1,0,13,32Zm7-8h3a1,1,0,1,0,0-2H20A1,1,0,1,0,20,24Zm0,4h3a1,1,0,1,0,0-2H20A1,1,0,1,0,20,28Zm0,4h3a1,1,0,1,0,0-2H20A1,1,0,1,0,20,32Z"/>
        </g>
      </g>
    </g>
  </g>
</svg>
