<svg xmlns="http://www.w3.org/2000/svg" width="30" height="25" viewBox="0 0 30 29">
  <defs>
    <style>
      .cls-1 {
        fill: #9a9a9a;
        fill-rule: evenodd;
      }
    </style>
  </defs>
  <path id="Icon" class="cls-1" d="M523.748,1039.84l-5.208,4.66h-6.166v-1.52h6a0.713,0.713,0,0,0,.5-0.2l5.874-5.3a0.745,0.745,0,0,0-1-1.11l-5.663,5.12h-5.711v-1.52h5.282a0.73,0.73,0,0,0,.5-0.2l6.6-6.02a0.754,0.754,0,0,0-.5-1.31H502.337a0.73,0.73,0,0,0-.5.2l-6.589,6.02a0.754,0.754,0,0,0,.5,1.31h6.241v1.52h-6.241a0.745,0.745,0,1,0,0,1.49h6.241v1.52h-6.241a0.75,0.75,0,0,0,0,1.5h23.084a0.753,0.753,0,0,0,.5-0.19l5.419-4.86A0.747,0.747,0,0,0,523.748,1039.84Zm-8.151-5.91-4.959,4.53H504.5l4.959-4.53H515.6Zm1.767,4.54h-4.511l4.959-4.53h4.511Zm-14.734-4.54h4.6l-4.959,4.53h-4.6Zm0.846,10.57v-4.53h7.4v4.53h-7.4Zm5.668-19.98h1.861a1.29,1.29,0,0,1,0,2.58H507.67a0.75,0.75,0,0,0,0,1.5h1.661v1.22a0.747,0.747,0,1,0,1.493,0v-1.22h0.218a2.785,2.785,0,0,0-.037-5.57h-1.861a1.29,1.29,0,0,1,0-2.58h3.279a0.75,0.75,0,0,0,0-1.5h-1.6v-1.2a0.747,0.747,0,1,0-1.493,0v1.19H509.15A2.79,2.79,0,0,0,509.144,1024.52Z" transform="translate(-495 -1017)"/>
</svg>
