<svg xmlns="http://www.w3.org/2000/svg" width="30" height="25" viewBox="0 0 30 25">
  <defs>
    <style>
      .cls-1 {
        fill: #1a1a1a;
        fill-rule: evenodd;
      }
    </style>
  </defs>
  <path id="Icon" class="cls-1" d="M1110.99,1036.35h8a0.48,0.48,0,0,0,.5-0.51v-4.6a0.48,0.48,0,0,0-.5-0.51h-8a0.48,0.48,0,0,0-.5.51v4.6A0.48,0.48,0,0,0,1110.99,1036.35Zm0.5-4.6h7v3.58h-7v-3.58Zm-13.99-2.04h4a0.475,0.475,0,0,0,.5-0.51,0.48,0.48,0,0,0-.5-0.51h-4a0.48,0.48,0,0,0-.5.51A0.475,0.475,0,0,0,1097.5,1029.71Zm6,0h4a0.475,0.475,0,0,0,.5-0.51,0.48,0.48,0,0,0-.5-0.51h-4a0.48,0.48,0,0,0-.5.51A0.475,0.475,0,0,0,1103.5,1029.71Zm-6,2.04h6.5a0.475,0.475,0,0,0,.5-0.51,0.48,0.48,0,0,0-.5-0.51h-6.5a0.48,0.48,0,0,0-.5.51A0.475,0.475,0,0,0,1097.5,1031.75Zm10-1.02H1106a0.48,0.48,0,0,0-.5.51,0.475,0.475,0,0,0,.5.51h1.5a0.475,0.475,0,0,0,.5-0.51A0.48,0.48,0,0,0,1107.5,1030.73Zm17.04-6.32a1.854,1.854,0,0,0-1.35-.77l-1.2-.15v-2.45a2.028,2.028,0,0,0-2-2.04H1097a2.028,2.028,0,0,0-2,2.04v16.33a2.041,2.041,0,0,0,1.43,1.95,1.987,1.987,0,0,0,1.77,2.03l23.09,2.65h0.2a2.019,2.019,0,0,0,2-1.74l1.5-16.37A2.014,2.014,0,0,0,1124.54,1024.41Zm-28.54-1.84h24.99v3.06H1096v-3.06Zm1-2.55h22.99a1.014,1.014,0,0,1,1,1.02v0.51H1096v-0.51A1.014,1.014,0,0,1,1097,1020.02Zm-1,17.35v-10.72h24.99v10.72a1.014,1.014,0,0,1-1,1.02H1097A1.014,1.014,0,0,1,1096,1037.37Zm27.99-11.69-1.5,16.38a1.017,1.017,0,0,1-1.1.92l-23.04-2.65a1.031,1.031,0,0,1-.9-0.92h22.54a2.028,2.028,0,0,0,2-2.04v-12.91l1.15,0.1a0.836,0.836,0,0,1,.65.36A1.037,1.037,0,0,1,1123.99,1025.68Z" transform="translate(-1095 -1019)"/>
</svg>
