<svg xmlns="http://www.w3.org/2000/svg" width="30" height="25" viewBox="0 0 30 25">
  <defs>
    <style>
      .cls-1 {
        fill: #9a9a9a;
        fill-rule: evenodd;
      }
    </style>
  </defs>
  <path id="Icon" class="cls-1" d="M1406.25,1028.32a1.516,1.516,0,0,0-1.28.72,0.711,0.711,0,0,1-.97.25,0.688,0.688,0,0,1-.27-0.95,2.946,2.946,0,0,1,5.04,0,0.684,0.684,0,0,1-.26.95,0.677,0.677,0,0,1-.36.1,0.721,0.721,0,0,1-.62-0.35A1.49,1.49,0,0,0,1406.25,1028.32Zm3.77,7.41a1.49,1.49,0,0,1-1.28-.72,0.725,0.725,0,0,0-.98-0.26,0.7,0.7,0,0,0-.26.96,2.946,2.946,0,0,0,5.04,0,0.7,0.7,0,0,0-.26-0.96,0.725,0.725,0,0,0-.98.26A1.5,1.5,0,0,1,1410.02,1035.73Zm14.98-6.81v3.18a2.187,2.187,0,0,1-2.18,2.19h-1.32a11.646,11.646,0,0,1-2.05,3.74,12.117,12.117,0,0,1-5.96,3.93,2.286,2.286,0,0,1-2.3,2.04h-2.34a2.251,2.251,0,1,1,0-4.5h2.34a2.346,2.346,0,0,1,1.98,1.1,10.256,10.256,0,0,0,.52-19.56,12.118,12.118,0,0,1-3.84,3.05,12.284,12.284,0,0,1-5.5,1.29c-0.22,0-.44,0-0.67-0.01a0.717,0.717,0,0,1-.67-0.74,0.706,0.706,0,0,1,.75-0.66c0.2,0.01.4,0.02,0.59,0.02a10.614,10.614,0,0,0,7.83-3.37,10.844,10.844,0,0,0-2.07-.22h-0.09a10.454,10.454,0,0,0-10.56,10.34v2.82a0.765,0.765,0,0,1-.75.73h-1.49a2.222,2.222,0,0,1-2.22-2.19v-3.18a2.148,2.148,0,0,1,1.54-2.05,0.717,0.717,0,0,1,.9.45,0.7,0.7,0,0,1-.46.88,0.768,0.768,0,0,0-.55.72v3.18a0.814,0.814,0,0,0,.79.8h0.8v-2.16a11.879,11.879,0,0,1,12-11.74h0.2a0.01,0.01,0,0,0,.01.01h0.19a0.035,0.035,0,0,1,.02-0.01h0.01a14.477,14.477,0,0,1,3.21.55c0.01,0.01.03,0.02,0.04,0.03a11.647,11.647,0,0,1,8.15,13.32h0.97a0.78,0.78,0,0,0,.75-0.8v-3.18a0.75,0.75,0,0,0-.53-0.72,0.691,0.691,0,0,1-.45-0.88,0.7,0.7,0,0,1,.89-0.45A2.13,2.13,0,0,1,1425,1028.92Zm-12.93,12.84a0.875,0.875,0,0,0-.02-0.16v-0.03a0.891,0.891,0,0,0-.86-0.68h-2.34a0.855,0.855,0,1,0,0,1.71h2.34A0.861,0.861,0,0,0,1412.07,1041.76Zm-0.54-12.47a0.725,0.725,0,0,0,.98-0.25,1.49,1.49,0,0,1,1.28-.72,1.516,1.516,0,0,1,1.28.72,0.721,0.721,0,0,0,.62.35,0.643,0.643,0,0,0,.35-0.1,0.688,0.688,0,0,0,.27-0.95,2.946,2.946,0,0,0-5.04,0A0.684,0.684,0,0,0,1411.53,1029.29Z" transform="translate(-1395 -1019)"/>
</svg>
