<svg xmlns="http://www.w3.org/2000/svg" width="30" height="25" viewBox="0 0 30 21">
  <defs>
  	<style>
      .cls-1 {
        fill: #9a9a9a;
        fill-rule: evenodd;
      }
    </style>
  </defs>
  <path id="Icon" class="cls-1" d="M819.527,1036.35a2.747,2.747,0,0,0-1.955.83,2.838,2.838,0,0,0-.819,2,2.806,2.806,0,0,0,.819,1.99A2.783,2.783,0,1,0,819.527,1036.35Zm0,4.39a1.565,1.565,0,0,1,0-3.13A1.566,1.566,0,0,1,819.527,1040.74Zm0.708-13.79a0.567,0.567,0,0,0-.409-0.16h-3.134a0.62,0.62,0,0,0-.611.63v5.14a0.627,0.627,0,0,0,.611.63h4.973a0.626,0.626,0,0,0,.61-0.63v-3.44a0.643,0.643,0,0,0-.2-0.47Zm0.819,4.98H817.3v-3.89h2.285l1.466,1.35v2.54Zm-16.445,4.42a2.749,2.749,0,0,0-1.955.83,2.841,2.841,0,0,0-.818,2,2.81,2.81,0,0,0,.818,1.99A2.783,2.783,0,1,0,804.609,1036.35Zm0,4.39a1.565,1.565,0,0,1,0-3.13A1.566,1.566,0,0,1,804.609,1040.74Zm-4.075-3.61h-1.227v-1.67a0.611,0.611,0,1,0-1.222,0v2.29a0.62,0.62,0,0,0,.611.63h1.838A0.625,0.625,0,0,0,800.534,1037.13Zm3.1-3.42a0.62,0.62,0,0,0-.61-0.63h-7.41a0.625,0.625,0,0,0,0,1.25h7.41A0.611,0.611,0,0,0,803.631,1033.71Zm-6.78-2.27,7.41,0.05a0.627,0.627,0,0,0,.617-0.62,0.614,0.614,0,0,0-.605-0.64l-7.41-.04h-0.006A0.625,0.625,0,0,0,796.851,1031.44Zm1.246-2.84h7.41a0.627,0.627,0,0,0,.611-0.63,0.62,0.62,0,0,0-.611-0.63H798.1a0.62,0.62,0,0,0-.611.63A0.627,0.627,0,0,0,798.1,1028.6Zm26.677-.85h0l-4.374-3.72a0.568,0.568,0,0,0-.391-0.15h-5.144v-2.25a0.62,0.62,0,0,0-.61-0.63H798.7a0.62,0.62,0,0,0-.611.63v4.59a0.611,0.611,0,1,0,1.222,0v-3.97H813.65v14.88h-5.009a0.625,0.625,0,0,0,0,1.25H816.1a0.625,0.625,0,0,0,0-1.25h-1.227v-11.99H819.8l3.983,3.39-0.043,8.58H823.1a0.627,0.627,0,0,0-.611.63,0.62,0.62,0,0,0,.611.63h1.24a0.618,0.618,0,0,0,.611-0.62l0.049-9.51A0.671,0.671,0,0,0,824.774,1027.75Z" transform="translate(-795 -1021)"/>
</svg>
