<svg id="Services" xmlns="http://www.w3.org/2000/svg" width="65" height="60" viewBox="0 0 65 60">
  <defs>
  </defs>
  <g id="Services-2" data-name="Services">
    <g id="_1" data-name="1">
      <g id="Voip_Analytics" data-name="Voip Analytics">
        <g id="Content">
          <path id="Icon" class="cls-1" d="M63.917,57.817V15.262h-13V57.817h-3.25V23.992h-13V57.817h-3.25V32.72h-13v25.1h-3.25V42.541h-13V57.817H1.083a1.091,1.091,0,0,0,0,2.183H63.917A1.091,1.091,0,0,0,63.917,57.817Zm-59.583,0V44.724H13V57.817H4.333Zm16.25,0V34.9H29.25V57.817H20.583Zm16.25,0V26.174H45.5V57.817H36.833Zm16.25,0V17.444H61.75V57.817H53.083ZM8.7,27.625a1.071,1.071,0,0,0,.54-0.147L48.531,4.629l-2.459,5.445a1.093,1.093,0,0,0,.537,1.444,1.055,1.055,0,0,0,.449.1,1.085,1.085,0,0,0,.987-0.639L51.9,2.434c0.012-.027.01-0.057,0.019-0.085a1.078,1.078,0,0,0,.048-0.174A0.861,0.861,0,0,0,52,2.087c0-.013,0-0.024,0-0.037a1.116,1.116,0,0,0,0-.121,1.117,1.117,0,0,0-.026-0.177,0.972,0.972,0,0,0-.025-0.124,1.03,1.03,0,0,0-.053-0.11c-0.014-.025-0.014-0.055-0.029-0.081S51.814,1.395,51.8,1.37a0.841,0.841,0,0,0-.067-0.1,1.068,1.068,0,0,0-.1-0.085,1.092,1.092,0,0,0-.139-0.11,0.94,0.94,0,0,0-.1-0.064C51.381,1,51.375.993,51.363,0.988c-0.027-.012-0.056-0.01-0.084-0.02A1.151,1.151,0,0,0,51.1.92,0.655,0.655,0,0,0,51.02.9L41.744-.009a1.081,1.081,0,0,0-1.183.98,1.089,1.089,0,0,0,.973,1.192L47.445,2.74,8.156,25.589a1.1,1.1,0,0,0-.4,1.49A1.08,1.08,0,0,0,8.7,27.625Z"/>
        </g>
      </g>
    </g>
  </g>
</svg>
