<svg id="Services" xmlns="http://www.w3.org/2000/svg" xmlns:xlink="http://www.w3.org/1999/xlink" width="117" height="130" viewBox="0 0 117 130">
  <defs>
    <filter id="filter" x="-9" y="0" width="274" height="304" filterUnits="userSpaceOnUse">
      <feOffset result="offset" dy="10" in="SourceAlpha"/>
      <feGaussianBlur result="blur" stdDeviation="3.162"/>
      <feFlood result="flood" flood-opacity="0.05"/>
      <feComposite result="composite" operator="in" in2="blur"/>
      <feBlend result="blend" in="SourceGraphic"/>
    </filter>
  </defs>
  <g id="Services-2" data-name="Services">
    <g id="_1" data-name="1">
      <g id="Call_Center" data-name="Call Center">
        <path id="Icon_Shape" data-name="Icon Shape" opacity="0.051" class="cls-1" d="M94.243,18.445V11.524c0-16.563-5.781-31.953-16.263-43.373A55.738,55.738,0,0,0,36.352-50H30.72A55.738,55.738,0,0,0-10.908-31.85C-21.39-20.429-27.172-5.039-27.172,11.524v6.921A24.694,24.694,0,0,0-50,43.176V53.991A24.638,24.638,0,0,0-25.568,78.759H-11.8a4.52,4.52,0,0,0,4.476-4.538V22.907A4.52,4.52,0,0,0-11.8,18.369h-6.416V11.524c0-29.911,21.038-52.449,48.9-52.449h5.633c27.9,0,48.9,22.538,48.9,52.449v6.845H78.8a4.52,4.52,0,0,0-4.476,4.538V74.184A4.52,4.52,0,0,0,78.8,78.721h6.267c-1.828,23.673-17.9,29.156-25.365,30.4a15.763,15.763,0,0,0-14.958-11H33.555a15.941,15.941,0,0,0,0,31.878H44.782a15.779,15.779,0,0,0,15.144-11.723,41.941,41.941,0,0,0,15.182-5.256c8.094-4.8,17.681-14.6,18.949-34.336A24.655,24.655,0,0,0,117,53.953V43.138A24.567,24.567,0,0,0,94.243,18.445Zm-110.449,51.2h-9.288a15.6,15.6,0,0,1-15.48-15.693V43.138a15.6,15.6,0,0,1,15.48-15.693h9.288v42.2Zm60.987,51.278H33.555a6.846,6.846,0,0,1,0-13.69H44.782A6.846,6.846,0,0,1,44.782,120.924Zm63.3-66.971A15.6,15.6,0,0,1,92.6,69.646H83.314v-42.2H92.6a15.6,15.6,0,0,1,15.48,15.693V53.953Z"/>
      </g>
    </g>
  </g>
</svg>
