<svg id="Services" xmlns="http://www.w3.org/2000/svg" xmlns:xlink="http://www.w3.org/1999/xlink" width="55" height="130" viewBox="0 0 55 130">
  <defs>
    <filter id="filter" x="-14" y="0" width="284" height="348" filterUnits="userSpaceOnUse">
      <feOffset result="offset" dy="15" in="SourceAlpha"/>
      <feGaussianBlur result="blur" stdDeviation="3.873"/>
      <feFlood result="flood" flood-opacity="0.1"/>
      <feComposite result="composite" operator="in" in2="blur"/>
      <feBlend result="blend" in="SourceGraphic"/>
    </filter>
  </defs>
  <g id="Services-2" data-name="Services">
    <g id="_1" data-name="1">
      <g id="VOIP_App_Hover_" data-name="VOIP App (Hover)">
        <g id="Hover">
          <path id="Icon_Shape" data-name="Icon Shape"  opacity="0.051" class="cls-1" d="M42.785-50H-37.787A12.215,12.215,0,0,0-49.993-37.842V117.835A12.222,12.222,0,0,0-37.787,130H42.785A12.216,12.216,0,0,0,54.993,117.84V-37.842A12.217,12.217,0,0,0,42.785-50Zm-53.174,8.763H15.389a1.475,1.475,0,0,1,1.477,1.478,1.473,1.473,0,0,1-1.477,1.469H-10.389a1.474,1.474,0,0,1-1.477-1.469A1.477,1.477,0,0,1-10.389-41.238ZM2.5,123.922a6.08,6.08,0,1,1,0-12.159A6.08,6.08,0,1,1,2.5,123.922Zm44-16.423h-88V-30.721h88V107.5Z"/>
        </g>
      </g>
    </g>
  </g>
</svg>
