<svg id="Services" xmlns="http://www.w3.org/2000/svg" xmlns:xlink="http://www.w3.org/1999/xlink" width="130" height="130" viewBox="0 0 130 130">
  <defs>
    <filter id="filter" x="-9" y="0" width="274" height="304" filterUnits="userSpaceOnUse">
      <feOffset result="offset" dy="10" in="SourceAlpha"/>
      <feGaussianBlur result="blur" stdDeviation="3.162"/>
      <feFlood result="flood" flood-opacity="0.05"/>
      <feComposite result="composite" operator="in" in2="blur"/>
      <feBlend result="blend" in="SourceGraphic"/>
    </filter>
  </defs>
  <g id="Services-2" data-name="Services">
    <g id="_2" data-name="2">
      <g id="Call_Center" data-name="Call Center">
        
        <path id="Icon_Shpe" data-name="Icon Shpe" class="cls-1" opacity="0.051" d="M123.164,90.821L87.893,55.552a10.81,10.81,0,0,0-15.27,0l-9.172,9.171a10.8,10.8,0,0,0-2.733,10.632l-3.461,3.46,0,0C54.8,81.279,39.493,77.5,20.993,59S-1.281,25.2,1.176,22.742h0l3.464-3.463a10.8,10.8,0,0,0,10.632-2.733l9.172-9.171a10.809,10.809,0,0,0,0-15.27l-35.27-35.271a10.728,10.728,0,0,0-7.635-3.161A10.731,10.731,0,0,0-26.1-43.166l-9.172,9.173A10.8,10.8,0,0,0-38-23.362s-2.933,2.962-3.079,3.149C-50.837-9.368-52.667,7.707-46.2,28.122c6.334,19.989,19.989,41.163,38.45,59.623s39.635,32.114,59.624,38.449A74.629,74.629,0,0,0,74.239,130c11.184,0,20.509-3.392,27.194-10.076L103.357,118a10.787,10.787,0,0,0,10.634-2.734l9.172-9.173A10.81,10.81,0,0,0,123.164,90.821ZM-18.461-35.531L16.81-.261,7.643,8.916l0-.005L7.506,8.779-10-8.724-27.633-26.359ZM93.8,112.288l0,0c-7.767,7.766-21.5,9.049-38.659,3.611C36.767,110.08,17.145,97.369-.113,80.11S-30.084,43.23-35.9,24.86C-41.344,7.7-40.061-6.032-32.293-13.8h0l0.974-.973L-3.946,12.6l-2.511,2.51-0.005.006c-10.4,10.413,2.1,33.8,19.821,51.525,13.266,13.266,29.705,23.6,41.5,23.6a13.632,13.632,0,0,0,10.03-3.789l0,0L67.4,83.943l27.372,27.371Zm12.559-4.66L71.086,72.358l9.172-9.172,35.271,35.269S106.36,107.632,106.357,107.628ZM86.692-6.694A54.007,54.007,0,0,0,48.251-22.617a5.4,5.4,0,0,0-5.4,5.4,5.4,5.4,0,0,0,5.4,5.4A43.566,43.566,0,0,1,91.818,31.746a5.4,5.4,0,0,0,10.8,0A54.011,54.011,0,0,0,86.692-6.694Zm19.364-19.363A81.218,81.218,0,0,0,48.249-50a5.4,5.4,0,0,0-5.4,5.4,5.4,5.4,0,0,0,5.4,5.4A70.952,70.952,0,0,1,119.2,31.748a5.4,5.4,0,0,0,10.8,0A81.21,81.21,0,0,0,106.056-26.057ZM67.328,12.669a26.445,26.445,0,0,0-19.075-7.9h0a5.4,5.4,0,1,0,0,10.8h0a15.658,15.658,0,0,1,11.44,4.74,15.863,15.863,0,0,1,4.739,11.442,5.4,5.4,0,0,0,5.4,5.4h0a5.4,5.4,0,0,0,5.4-5.4A26.449,26.449,0,0,0,67.328,12.669Z"/>
      </g>
    </g>
  </g>
</svg>
