<svg id="Services" xmlns="http://www.w3.org/2000/svg" width="60" height="60" viewBox="0 0 60 60">
  <defs>
  </defs>
  <g id="Services-2" data-name="Services">
    <g id="_1" data-name="1">
      <g id="Voip_Office" data-name="Voip Office">
        <g id="Content">
          <path id="Icon" class="cls-1" d="M59.639,1.162c-0.015-.017-0.022-0.036-0.03-0.045a0.628,0.628,0,0,1-.045-0.06,2.347,2.347,0,0,0-1.9-.981h-40a2.353,2.353,0,0,0-2.353,2.356v47.98h0a2.353,2.353,0,0,0,.38,1.28,0.182,0.182,0,0,1,.022.039,0.358,0.358,0,0,1,.048.058,2.34,2.34,0,0,0,1.9.982h2.932a6.636,6.636,0,0,1-13.142-.106H10.4a2.353,2.353,0,0,0,2.355-2.353V2.326a2.305,2.305,0,0,0-.375-1.267,0.485,0.485,0,0,0-.031-0.045A0.205,0.205,0,0,0,12.308.956,2.353,2.353,0,0,0,10.4-.025H2.341A2.35,2.35,0,0,0-.01,2.326V50.308h0a2.334,2.334,0,0,0,.376,1.277,0.188,0.188,0,0,1,.027.039c0.015,0.024.033,0.041,0.044,0.06a2.346,2.346,0,0,0,1.9.98H5.852a8.218,8.218,0,0,0,16.334.1H57.658a2.352,2.352,0,0,0,2.352-2.354V2.435h0A2.286,2.286,0,0,0,59.639,1.162ZM30.456,35.581a1,1,0,0,1-1.006,1H23.912a1,1,0,0,1-1-1V33.233a1,1,0,0,1,1-1H29.45a1.006,1.006,0,0,1,1.006,1v2.348Zm0-7.984a1,1,0,0,1-1.006,1H23.912a1,1,0,0,1-1-1V25.252a1.006,1.006,0,0,1,1-1.006H29.45a1.006,1.006,0,0,1,1.006,1.006V27.6Zm0-7.983a1.006,1.006,0,0,1-1.006,1H23.912a1.006,1.006,0,0,1-1-1V17.268a1,1,0,0,1,1-1.006H29.45a1.006,1.006,0,0,1,1.006,1.006v2.346ZM41.437,35.581a1,1,0,0,1-1.007,1H34.894a1,1,0,0,1-1-1V33.233a1,1,0,0,1,1-1h5.537a1,1,0,0,1,1.007,1v2.348Zm0-7.984a1,1,0,0,1-1.007,1H34.894a1,1,0,0,1-1-1V25.252a1,1,0,0,1,1-1.006h5.537a1,1,0,0,1,1.007,1.006V27.6Zm0-7.983a1,1,0,0,1-1.007,1H34.894a1,1,0,0,1-1-1V17.268a1,1,0,0,1,1-1.006h5.537a1,1,0,0,1,1.007,1.006v2.346ZM52.419,35.581a1,1,0,0,1-1.01,1H45.875a1,1,0,0,1-1.008-1V33.233a1.006,1.006,0,0,1,1.008-1h5.534a1.007,1.007,0,0,1,1.01,1v2.348Zm0-7.984a1.007,1.007,0,0,1-1.01,1H45.875a1,1,0,0,1-1.008-1V25.252a1.006,1.006,0,0,1,1.008-1.006h5.534a1.008,1.008,0,0,1,1.01,1.006V27.6Zm0-7.983a1.008,1.008,0,0,1-1.01,1H45.875a1.006,1.006,0,0,1-1.008-1V17.268a1.006,1.006,0,0,1,1.008-1.006h5.534a1.007,1.007,0,0,1,1.01,1.006v2.346Z"/>
        </g>
      </g>
    </g>
  </g>
</svg>
