<svg id="Services" xmlns="http://www.w3.org/2000/svg" width="60" height="60" viewBox="0 0 60 60">
  <defs>
  </defs>
  <g id="Services-2" data-name="Services">
    <g id="_2" data-name="2">
      <g id="Call_Center" data-name="Call Center">
        <g id="Content">
          <path id="Icon" class="cls-1" d="M57.721,46.939L45.964,35.184a3.6,3.6,0,0,0-5.09,0L37.817,38.24a3.6,3.6,0,0,0-.911,3.544l-1.154,1.154h0c-0.819.819-5.921-.438-12.088-6.605S16.24,25.067,17.059,24.247h0l1.155-1.154a3.629,3.629,0,0,0,1,.141,3.588,3.588,0,0,0,2.545-1.052l3.057-3.058a3.6,3.6,0,0,0,0-5.089L13.058,2.277a3.6,3.6,0,0,0-5.09,0L4.911,5.334A3.6,3.6,0,0,0,4,8.879s-0.978.987-1.026,1.049C-0.279,13.544-.889,19.235,1.267,26.04,3.378,32.7,7.93,39.761,14.084,45.914S27.3,56.619,33.958,58.731A24.9,24.9,0,0,0,41.413,60a12.4,12.4,0,0,0,9.065-3.359L51.119,56a3.592,3.592,0,0,0,3.545-.912l3.057-3.058A3.6,3.6,0,0,0,57.721,46.939ZM10.513,4.822L22.27,16.579l-3.056,3.058h0l-0.044-.044-5.834-5.834L7.456,7.88ZM47.933,54.1h0c-2.589,2.588-7.166,3.016-12.886,1.2-6.123-1.94-12.664-6.177-18.417-11.93S6.639,31.076,4.7,24.952c-1.813-5.721-1.385-10.3,1.2-12.887h0l0.325-.324,9.124,9.123-0.837.837,0,0c-3.467,3.471.7,11.267,6.607,17.175,4.422,4.422,9.9,7.868,13.834,7.868A4.545,4.545,0,0,0,38.3,45.484h0l0.836-.836,9.124,9.124Zm4.186-1.553L40.362,40.786l3.057-3.057L55.176,49.485S52.12,52.543,52.119,52.542ZM45.564,14.435A18,18,0,0,0,32.75,9.127a1.8,1.8,0,0,0,0,3.6A14.522,14.522,0,0,1,47.272,27.248a1.8,1.8,0,1,0,3.6,0A18,18,0,0,0,45.564,14.435ZM52.019,7.98A27.07,27.07,0,0,0,32.749,0a1.8,1.8,0,1,0,0,3.6A23.651,23.651,0,0,1,56.4,27.249a1.8,1.8,0,0,0,3.6,0A27.069,27.069,0,0,0,52.019,7.98ZM39.109,20.889a8.819,8.819,0,0,0-6.358-2.634h0a1.8,1.8,0,1,0,0,3.6h0a5.22,5.22,0,0,1,3.813,1.58,5.285,5.285,0,0,1,1.58,3.813,1.8,1.8,0,0,0,1.8,1.8h0a1.8,1.8,0,0,0,1.8-1.8A8.818,8.818,0,0,0,39.109,20.889Z"/>
        </g>
      </g>
    </g>
  </g>
</svg>
