<svg id="Services" xmlns="http://www.w3.org/2000/svg" xmlns:xlink="http://www.w3.org/1999/xlink" width="128" height="129" viewBox="0 0 128 129">
  <defs>
    <filter id="filter" x="-9" y="0" width="274" height="304" filterUnits="userSpaceOnUse">
      <feOffset result="offset" dy="10" in="SourceAlpha"/>
      <feGaussianBlur result="blur" stdDeviation="3.162"/>
      <feFlood result="flood" flood-opacity="0.05"/>
      <feComposite result="composite" operator="in" in2="blur"/>
      <feBlend result="blend" in="SourceGraphic"/>
    </filter>
  </defs>
  <g id="Services-2" data-name="Services">
    <g id="_1" data-name="1">
      <g id="Voip_Office" data-name="Voip Office">
        <path id="Icon_Shape" data-name="Icon Shape" opacity="0.051" class="cls-1" d="M128.9-46.472c-0.045-.053-0.067-0.108-0.09-0.136-0.044-.075-0.112-0.12-0.134-0.178a7.054,7.054,0,0,0-5.713-2.926H2.99a7.037,7.037,0,0,0-7.058,7.024V100.354h0a6.984,6.984,0,0,0,1.14,3.817,0.51,0.51,0,0,1,.067.117,1.174,1.174,0,0,1,.145.172,7.028,7.028,0,0,0,5.705,2.929h8.793a19.938,19.938,0,0,1-19.7,16.869,19.906,19.906,0,0,1-19.719-17.186h8.854a7.036,7.036,0,0,0,7.063-7.018V-43a6.843,6.843,0,0,0-1.126-3.779c-0.031-.038-0.059-0.1-0.093-0.136a0.65,0.65,0,0,0-.131-0.169,7.067,7.067,0,0,0-5.719-2.925H-42.959A7.028,7.028,0,0,0-50.011-43v143.05a6.926,6.926,0,0,0,1.127,3.807,0.567,0.567,0,0,1,.081.117c0.045,0.072.1,0.122,0.132,0.177a7.045,7.045,0,0,0,5.713,2.923h10.532A24.675,24.675,0,0,0-7.92,129.009a24.687,24.687,0,0,0,24.483-21.631H122.956a7.035,7.035,0,0,0,7.055-7.018V-42.681A6.782,6.782,0,0,0,128.9-46.472ZM41.367,56.141a3,3,0,0,1-3.016,2.989H21.74a3,3,0,0,1-3.013-2.989v-7A3,3,0,0,1,21.74,46.15H38.351a3.007,3.007,0,0,1,3.016,2.989v7Zm0-23.8a3.008,3.008,0,0,1-3.016,3H21.74a3.005,3.005,0,0,1-3.013-3V25.346a3.007,3.007,0,0,1,3.013-3H38.351a3.009,3.009,0,0,1,3.016,3v6.993Zm0-23.8a3.009,3.009,0,0,1-3.016,2.992H21.74a3.007,3.007,0,0,1-3.013-2.992V1.545a3,3,0,0,1,3.013-3H38.351a3.006,3.006,0,0,1,3.016,3V8.538ZM74.3,56.141a3,3,0,0,1-3.019,2.989H54.677a2.99,2.99,0,0,1-3.013-2.989v-7a3,3,0,0,1,3.013-2.989H71.286A3,3,0,0,1,74.3,49.14v7Zm0-23.8a3,3,0,0,1-3.019,3H54.677a3,3,0,0,1-3.013-3V25.346a3,3,0,0,1,3.013-3H71.286a3,3,0,0,1,3.019,3v6.993Zm0-23.8a3,3,0,0,1-3.019,2.992H54.677a3,3,0,0,1-3.013-2.992V1.545a3,3,0,0,1,3.013-3H71.286a3,3,0,0,1,3.019,3V8.538Zm32.938,47.6a3,3,0,0,1-3.03,2.989h-16.6a3,3,0,0,1-3.024-2.989v-7a3.007,3.007,0,0,1,3.024-2.989h16.6a3.011,3.011,0,0,1,3.03,2.989v7Zm0-23.8a3.012,3.012,0,0,1-3.03,3h-16.6a3.007,3.007,0,0,1-3.024-3V25.346a3.009,3.009,0,0,1,3.024-3h16.6a3.013,3.013,0,0,1,3.03,3v6.993Zm0-23.8a3.013,3.013,0,0,1-3.03,2.992h-16.6a3.009,3.009,0,0,1-3.024-2.992V1.545a3.006,3.006,0,0,1,3.024-3h16.6a3.011,3.011,0,0,1,3.03,3V8.538Z"/>
      </g>
    </g>
  </g>
</svg>
