<svg xmlns="http://www.w3.org/2000/svg" width="26" height="18" viewBox="0 0 26 18">
  <defs>
    <style>
      .cls-1 {
        fill-rule: evenodd;
      }
    </style>
  </defs>
  <path id="Forma_1" data-name="Forma 1" class="cls-1" d="M1484.51,5529.27a0.929,0.929,0,0,0-1.31,0,0.882,0.882,0,0,0,0,1.27l6.64,6.54h-21.92a0.907,0.907,0,0,0-.92.9,0.918,0.918,0,0,0,.92.92h21.92l-6.64,6.52a0.905,0.905,0,0,0,0,1.29,0.929,0.929,0,0,0,1.31,0l8.21-8.08a0.877,0.877,0,0,0,0-1.28Z" transform="translate(-1467 -5529)"/>
</svg>
