<svg xmlns="http://www.w3.org/2000/svg" width="27.03" height="18.03" viewBox="0 0 27.03 18.03">
  <defs>
    <style>
      .cls-1 {
        fill-rule: evenodd;
      }
    </style>
  </defs>
  <path id="Forma_1" data-name="Forma 1" class="cls-1" d="M1475.79,5564.24a0.991,0.991,0,0,1,1.36,0,0.877,0.877,0,0,1,0,1.28l-6.9,6.55h22.78a0.94,0.94,0,0,1,.97.91,0.955,0.955,0,0,1-.97.92h-22.78l6.9,6.54a0.888,0.888,0,0,1,0,1.29,0.991,0.991,0,0,1-1.36,0l-8.54-8.11a0.865,0.865,0,0,1,0-1.27Z" transform="translate(-1466.97 -5563.97)"/>
</svg>
