<svg xmlns="http://www.w3.org/2000/svg" width="20" height="14" viewBox="0 0 20 14">
  <defs>
    <style>
      .cls-1 {
        fill: #202020;
        fill-rule: evenodd;
      }
    </style>
  </defs>
  <path id="Forma_1" data-name="Forma 1" class="cls-1" d="M1462.73,1085.33l-5.95-6.05a0.924,0.924,0,0,0-1.32,0,0.954,0.954,0,0,0,0,1.33l4.36,4.44h-15.89a0.95,0.95,0,0,0,0,1.9h15.89l-4.36,4.43a0.966,0.966,0,0,0,0,1.34,0.9,0.9,0,0,0,.66.28,0.917,0.917,0,0,0,.66-0.28l5.95-6.05A0.966,0.966,0,0,0,1462.73,1085.33Z" transform="translate(-1443 -1079)"/>
</svg>
