<svg xmlns="http://www.w3.org/2000/svg" xmlns:xlink="http://www.w3.org/1999/xlink" width="60.18" height="60" viewBox="0 0 60.18 60">
  <defs>
    <style>
      .cls-1 {
        fill-rule: evenodd;
        fill: url(#linear-gradient);
      }
    </style>
    <linearGradient id="linear-gradient" x1="1309.41" y1="1304" x2="1369.59" y2="1304" gradientUnits="userSpaceOnUse">
      <stop offset="0" stop-color="#13c5d0"/>
      <stop offset="1" stop-color="#7df4dc"/>
    </linearGradient>
  </defs>
  <path id="Icon4" class="cls-1" d="M1360.18,1312.97v-4.18a4.918,4.918,0,0,0,0-9.56v-4.2a10.549,10.549,0,1,0-10.86-14.7h-5.24a4.92,4.92,0,1,0,0,2.34h4.52a10.536,10.536,0,0,0,9.23,12.36v4.2a4.937,4.937,0,0,0-3.62,3.61h-9.78a4.941,4.941,0,0,0-9.59,0h-4.34a10.587,10.587,0,0,0-9.35-9.32v-10.85h4.89a1.17,1.17,0,1,0,0-2.34h-6.07a1.165,1.165,0,0,0-1.17,1.17v12.03a10.544,10.544,0,0,0-1.99,20.54l-5.29,9.15a1.165,1.165,0,0,0,0,1.17,1.152,1.152,0,0,0,1.01.59h3.23v7.85a1.182,1.182,0,0,0,1.18,1.18h6.11a1.174,1.174,0,0,0,1.17-1.18v-7.85h3.24a1.152,1.152,0,0,0,1.01-.59,1.165,1.165,0,0,0,0-1.17l-5.29-9.15a10.535,10.535,0,0,0,7.32-8.89h4.34a4.97,4.97,0,0,0,3.47,3.57v4.5a1.175,1.175,0,0,0,2.35,0v-4.43a4.95,4.95,0,0,0,3.77-3.64h9.78a4.969,4.969,0,0,0,3.62,3.61v4.18a10.584,10.584,0,0,0-9.4,10.49,10.4,10.4,0,0,0,.17,1.87h-4.32a4.925,4.925,0,1,0,0,2.35h5.04A10.567,10.567,0,1,0,1360.18,1312.97Zm-20.89-28.89a2.58,2.58,0,1,1,2.58-2.58A2.588,2.588,0,0,1,1339.29,1284.08Zm-17.42,47.58h-3.76v-6.68h3.76v6.68Zm3.55-9.02h-10.85l5.42-9.38Zm0.09-12.54a8.159,8.159,0,0,1-3.55,1.87l-0.95-1.64a1.179,1.179,0,0,0-1.02-.58,1.163,1.163,0,0,0-1.01.58l-0.95,1.65a8.3,8.3,0,0,1-3.56-1.87v-0.17a1.756,1.756,0,0,1,1.43-1.72l1.13-.21a4.357,4.357,0,0,0,5.92,0l1.13,0.21a1.756,1.756,0,0,1,1.43,1.72v0.16h0Zm-7.53-5.28v-2.07a2.01,2.01,0,1,1,4.02,0v2.07A2.01,2.01,0,0,1,1317.98,1304.82Zm9.29,3.01a4.076,4.076,0,0,0-2.76-1.91l-0.29-.05a4.083,4.083,0,0,0,.13-1.05v-2.07a4.36,4.36,0,0,0-8.72,0v2.07a4.083,4.083,0,0,0,.13,1.05l-0.29.05a4.1,4.1,0,0,0-2.77,1.92,8.228,8.228,0,1,1,15.52-3.83A8.1,8.1,0,0,1,1327.27,1307.83Zm12.36-1.24a2.58,2.58,0,1,1,2.59-2.58A2.586,2.586,0,0,1,1339.63,1306.59Zm-0.15,22.5a2.58,2.58,0,1,1,2.59-2.58A2.586,2.586,0,0,1,1339.48,1329.09Zm12.25-40.72a8.217,8.217,0,1,1,15.5-3.82,8.067,8.067,0,0,1-.95,3.82,4.088,4.088,0,0,0-2.75-1.9l-0.29-.06a4.44,4.44,0,0,0,.13-1.05v-2.06a4.365,4.365,0,0,0-8.73,0v2.06a4.44,4.44,0,0,0,.13,1.05l-0.29.06A4.088,4.088,0,0,0,1351.73,1288.37Zm9.29-5.07v2.06a2.015,2.015,0,0,1-4.03,0v-2.06A2.015,2.015,0,0,1,1361.02,1283.3Zm-7.53,7.33v-0.14a1.756,1.756,0,0,1,1.42-1.72l1.14-.21a4.351,4.351,0,0,0,2.96,1.16,4.308,4.308,0,0,0,2.95-1.16l1.14,0.21a1.756,1.756,0,0,1,1.43,1.72v0.14A8.246,8.246,0,0,1,1353.49,1290.63Zm2.93,13.38a2.585,2.585,0,1,1,2.59,2.58A2.588,2.588,0,0,1,1356.42,1304.01Zm8.11,25.52a8.218,8.218,0,0,1-11.04,0v-0.14a1.756,1.756,0,0,1,1.43-1.72l1.13-.21a4.357,4.357,0,0,0,5.92,0l1.13,0.21a1.756,1.756,0,0,1,1.43,1.72v0.14Zm-7.53-5.26v-2.07a2.01,2.01,0,0,1,4.02,0v2.07A2.01,2.01,0,0,1,1357,1324.27Zm9.29,3a4.085,4.085,0,0,0-2.76-1.9l-0.29-.05a4.083,4.083,0,0,0,.13-1.05v-2.07a4.36,4.36,0,1,0-8.72,0v2.07a4.083,4.083,0,0,0,.13,1.05l-0.29.05a4.085,4.085,0,0,0-2.76,1.9A8.23,8.23,0,1,1,1366.29,1327.27Zm-35.26-46.6a1.183,1.183,0,0,0-1.66,0A1.18,1.18,0,1,0,1331.03,1280.67Zm9.29,35.86a1.2,1.2,0,0,0-1.67,0,1.183,1.183,0,0,0,0,1.66,1.171,1.171,0,0,0,1.67,0A1.183,1.183,0,0,0,1340.32,1316.53Z" transform="translate(-1309.41 -1274)"/>
</svg>
