<svg xmlns="http://www.w3.org/2000/svg" xmlns:xlink="http://www.w3.org/1999/xlink" width="61" height="61" viewBox="0 0 61 61">
  <defs>
    <style>
      .cls-1 {
        fill-rule: evenodd;
        fill: url(#linear-gradient);
      }
    </style>
    <linearGradient id="linear-gradient" x1="928" y1="1304.5" x2="989" y2="1304.5" gradientUnits="userSpaceOnUse">
      <stop offset="0" stop-color="#13c5d0"/>
      <stop offset="1" stop-color="#7df4dc"/>
    </linearGradient>
  </defs>
  <path id="Icon" class="cls-1" d="M960.613,1302.38a1.191,1.191,0,0,0-1.151-.3l-23.72,6.35a1.191,1.191,0,0,0-.843.84,1.209,1.209,0,0,0,.309,1.16l3.575,3.57-10.41,10.41a1.192,1.192,0,0,0-.349.84,1.175,1.175,0,0,0,.349.84l8.53,8.53a1.189,1.189,0,0,0,1.685,0L949,1324.22l3.575,3.57a1.179,1.179,0,0,0,.843.35,1.082,1.082,0,0,0,.308-0.04,1.192,1.192,0,0,0,.843-0.84l6.356-23.73A1.2,1.2,0,0,0,960.613,1302.38Zm-22.868,29.72-1.852-1.85,2.919-2.92a1.193,1.193,0,0,0-1.685-1.69l-2.919,2.92-3.308-3.31,9.568-9.56,6.844,6.84Zm15.053-7.45-2.957-2.96h0l-8.527-8.53h0l-2.956-2.96,19.734-5.29Zm17.443-31.89a1.183,1.183,0,0,0-1.685,0l-4.993,4.99a1.186,1.186,0,0,0,0,1.68,1.189,1.189,0,0,0,1.685,0l4.993-4.99A1.186,1.186,0,0,0,970.241,1292.76Zm-0.816,15.51-4.177-4.18a1.193,1.193,0,0,0-1.685,1.69l4.177,4.17a1.188,1.188,0,0,0,1.684,0A1.185,1.185,0,0,0,969.425,1308.27Zm3.534,3.53a1.2,1.2,0,1,0,.349.85A1.209,1.209,0,0,0,972.959,1311.8Zm-14.052-14.05-4.993-4.99a1.19,1.19,0,1,0-1.685,1.68l4.993,4.99a1.189,1.189,0,0,0,1.685,0A1.186,1.186,0,0,0,958.907,1297.75Zm13.873,2.82h-2.224a1.19,1.19,0,1,0,0,2.38h2.224A1.19,1.19,0,1,0,972.78,1300.57Zm-11.545-11.54a1.189,1.189,0,0,0-1.191,1.19v2.22a1.191,1.191,0,0,0,2.382,0v-2.22A1.189,1.189,0,0,0,961.235,1289.03Zm17.757-6.26a1.21,1.21,0,1,1,1.43-1.19,1.192,1.192,0,0,0,2.383,0,3.606,3.606,0,0,0-2.623-3.39,1.19,1.19,0,0,0-2.38,0,3.605,3.605,0,0,0-2.622,3.39,3.7,3.7,0,0,0,3.812,3.57,1.21,1.21,0,1,1-1.43,1.19,1.191,1.191,0,0,0-2.382,0,3.606,3.606,0,0,0,2.623,3.39,1.19,1.19,0,0,0,2.378,0,3.606,3.606,0,0,0,2.624-3.39A3.7,3.7,0,0,0,978.992,1282.77Zm0-8.77A10.005,10.005,0,1,0,989,1284.01,10.02,10.02,0,0,0,978.992,1274Zm0,17.63a7.625,7.625,0,1,1,7.625-7.62A7.632,7.632,0,0,1,978.992,1291.63Zm-40.984-8.86a1.21,1.21,0,1,1,1.429-1.19,1.192,1.192,0,0,0,2.383,0,3.605,3.605,0,0,0-2.622-3.39,1.19,1.19,0,0,0-2.38,0,3.606,3.606,0,0,0-2.623,3.39,3.7,3.7,0,0,0,3.813,3.57,1.21,1.21,0,1,1-1.43,1.19,1.192,1.192,0,0,0-2.383,0,3.606,3.606,0,0,0,2.624,3.39,1.19,1.19,0,0,0,2.378,0,3.606,3.606,0,0,0,2.623-3.39A3.7,3.7,0,0,0,938.008,1282.77Zm0-8.77a10.005,10.005,0,1,0,10.008,10.01A10.02,10.02,0,0,0,938.008,1274Zm0,17.63a7.625,7.625,0,1,1,7.625-7.62A7.632,7.632,0,0,1,938.008,1291.63Zm40.984,32.12a1.206,1.206,0,1,1,1.43-1.18,1.192,1.192,0,0,0,2.383,0,3.618,3.618,0,0,0-2.623-3.4,1.19,1.19,0,0,0-2.38,0,3.617,3.617,0,0,0-2.622,3.4,3.707,3.707,0,0,0,3.812,3.57,1.206,1.206,0,1,1-1.43,1.18,1.191,1.191,0,0,0-2.382,0,3.6,3.6,0,0,0,2.623,3.39,1.19,1.19,0,0,0,2.378,0,3.6,3.6,0,0,0,2.624-3.39A3.7,3.7,0,0,0,978.992,1323.75Zm0-8.77A10.01,10.01,0,1,0,989,1324.99,10.02,10.02,0,0,0,978.992,1314.98Zm0,17.64a7.63,7.63,0,1,1,7.625-7.63A7.641,7.641,0,0,1,978.992,1332.62Zm-37.256-9.9a1.189,1.189,0,0,0-1.685,0,1.185,1.185,0,0,0,0,1.68A1.19,1.19,0,1,0,941.736,1322.72Z" transform="translate(-928 -1274)"/>
</svg>
