<svg xmlns="http://www.w3.org/2000/svg" width="14" height="20" viewBox="0 0 14 20">
  <defs>
    <style>
      .cls-1 {
        fill: #202020;
        fill-rule: evenodd;
      }
    </style>
  </defs>
  <path id="Forma_1_copy" data-name="Forma 1 copy" class="cls-1" d="M1452.33,1181.27l-6.05,5.95a0.924,0.924,0,0,0,0,1.32,0.954,0.954,0,0,0,1.33,0l4.44-4.36v15.89a0.95,0.95,0,0,0,1.9,0v-15.89l4.44,4.36a0.954,0.954,0,0,0,1.33,0,0.9,0.9,0,0,0,.28-0.66,0.917,0.917,0,0,0-.28-0.66l-6.05-5.95A0.966,0.966,0,0,0,1452.33,1181.27Z" transform="translate(-1446 -1181)"/>
</svg>
