<svg xmlns="http://www.w3.org/2000/svg" xmlns:xlink="http://www.w3.org/1999/xlink" width="50" height="50" viewBox="0 0 50 50">
  <defs>
    <style>
      .cls-1 {
        fill-rule: evenodd;
        fill: url(#linear-gradient);
      }
    </style>
    <linearGradient id="linear-gradient" x1="679" y1="2789" x2="679" y2="2739" gradientUnits="userSpaceOnUse">
      <stop offset="0" stop-color="#13c5d0"/>
      <stop offset="1" stop-color="#7df4dc"/>
    </linearGradient>
  </defs>
  <path id="Forma_1" data-name="Forma 1" class="cls-1" d="M703.991,2768.93c0-6.64-2.734-15.32-10.343-18.43v-3.33l2.263-1.81a0.854,0.854,0,0,0,.323-0.67v-4.83a0.864,0.864,0,0,0-.862-0.86h-2.586a0.867,0.867,0,0,0-.609.25l-1.114,1.12-1.115-1.12a0.865,0.865,0,0,0-.609-0.25h-3.448a0.864,0.864,0,0,0-.609.25l-1.115,1.12-1.114-1.12a0.868,0.868,0,0,0-.61-0.25h-2.585a0.864,0.864,0,0,0-.862.86v4.83a0.851,0.851,0,0,0,.323.67l2.262,1.81v3.33c-7.609,3.11-10.343,11.8-10.343,18.43a14.037,14.037,0,0,0,.716,4.58c-0.371-.02-0.744-0.03-1.116-0.03h-2.185a0.864,0.864,0,0,0-.862-0.86h-6.9a0.864,0.864,0,0,0-.862.86H654v1.73h6.033v8.62H654v1.72h6.033a0.858,0.858,0,0,0,.862.86h6.9a0.858,0.858,0,0,0,.862-0.86v-0.33l6.435,2.67a14.9,14.9,0,0,0,10.968.13l13.316-5.08a3.189,3.189,0,0,0,1.2-5.12A11.96,11.96,0,0,0,703.991,2768.93Zm-37.062,15.76h-5.172v-10.35h5.172v10.35Zm13.791-40.41v-3.56h1.367l1.471,1.48a0.874,0.874,0,0,0,1.219,0l1.471-1.48h2.734l1.471,1.48a0.874,0.874,0,0,0,1.219,0l1.471-1.48h1.367v3.56l-2.026,1.62h-9.74Zm11.2,3.34v2.59h-8.62v-2.59h8.62Zm7.627,32.94a1.42,1.42,0,0,1-.8.77l-13.316,5.08a13.206,13.206,0,0,1-9.7-.11l-7.087-2.95v-8.14h2.185a18.387,18.387,0,0,1,8.233,1.94,6.112,6.112,0,0,0,2.72.64h6.686a1.292,1.292,0,0,1,.284,2.55c-0.113.01-.223,0.04-0.338,0.04H678.134v1.72h10.395a5.434,5.434,0,0,0,1.989-.42l7.206-3.06a1.34,1.34,0,0,1,1.075,0,1.425,1.425,0,0,1,.776.8A1.469,1.469,0,0,1,699.552,2780.56Zm-0.514-3.67a3.02,3.02,0,0,0-1.988.14l-5.588,2.37a2.888,2.888,0,0,0,.032-0.32,3.015,3.015,0,0,0-3.017-3.01h-6.686a4.394,4.394,0,0,1-1.949-.46,20.033,20.033,0,0,0-5.939-1.88,11.83,11.83,0,0,1-.941-4.8c0-6.21,2.535-14.35,9.654-17h10c7.119,2.65,9.654,10.79,9.654,17A10.224,10.224,0,0,1,699.038,2776.89Zm-35.557,4.35h1.724v1.72h-1.724v-1.72Zm25.965-17.54-3.116-1.04a0.641,0.641,0,0,1,.2-1.25H688.7a0.643,0.643,0,0,1,.641.64v0.57h1.724v-0.57a2.365,2.365,0,0,0-2.365-2.36h-0.221v-1.73h-1.724v1.73h-0.222a2.366,2.366,0,0,0-.747,4.61l3.116,1.04a0.634,0.634,0,0,1,.409.8,0.642,0.642,0,0,1-.611.45h-2.167a0.651,0.651,0,0,1-.64-0.65v-0.56h-1.724v0.56a2.367,2.367,0,0,0,2.364,2.37h0.222v1.72h1.724v-1.72H688.7A2.366,2.366,0,0,0,689.446,2763.7Zm-1.831-9.18A9.48,9.48,0,1,0,697.1,2764,9.478,9.478,0,0,0,687.615,2754.52Zm0,17.24a7.76,7.76,0,1,1,7.757-7.76A7.762,7.762,0,0,1,687.615,2771.76Z" transform="translate(-654 -2739)"/>
</svg>
