<svg xmlns="http://www.w3.org/2000/svg" xmlns:xlink="http://www.w3.org/1999/xlink" width="50" height="48.97" viewBox="0 0 50 48.97">
  <defs>
    <style>
      .cls-1 {
        fill-rule: evenodd;
        fill: url(#linear-gradient);
      }
    </style>
    <linearGradient id="linear-gradient" x1="466" y1="2788" x2="466" y2="2739.03" gradientUnits="userSpaceOnUse">
      <stop offset="0" stop-color="#13c5d0"/>
      <stop offset="1" stop-color="#7df4dc"/>
    </linearGradient>
  </defs>
  <path class="cls-1" d="M481.455,2771.66a6.442,6.442,0,0,0,3.151-5.52v-2.37a0.682,0.682,0,0,0,.007-0.09v-2.48a6.409,6.409,0,0,0-2.26-4.87,19.977,19.977,0,0,0-2.4-6.25l3.549-3.49a0.7,0.7,0,0,0,.185-0.71,0.74,0.74,0,0,0-.548-0.5l-3.836-.81-1.254-1.24-0.828-3.76a0.737,0.737,0,0,0-1.234-.36l-3.518,3.46a21.152,21.152,0,0,0-25.356,3.17,20.249,20.249,0,0,0,0,29,20.949,20.949,0,0,0,14.762,6.01,21.311,21.311,0,0,0,3.571-.3,11.083,11.083,0,0,0-.406,2.96v3.77a0.725,0.725,0,0,0,.732.72h4.136a0.72,0.72,0,1,0,0-1.44h-3.4v-3.05a9.86,9.86,0,0,1,.685-3.6,0.191,0.191,0,0,0,.026-0.05,11.618,11.618,0,0,1,5.094-5.69l0.05-.03c0.063-.03.127-0.07,0.191-0.1,0.048-.03.1-0.05,0.143-0.08a0.1,0.1,0,0,1,.048-0.02,12.334,12.334,0,0,1,1.926-.79l1.171,2.23-1.569,6.7a0.711,0.711,0,0,0,.219.69l3.036,2.73a0.737,0.737,0,0,0,.988,0l3.036-2.73a0.711,0.711,0,0,0,.219-0.69l-1.569-6.7,1.171-2.23a12.247,12.247,0,0,1,4.691,2.72,10.447,10.447,0,0,1,3.472,7.64v3.05H472.351a0.72,0.72,0,1,0,0,1.44h17.917a0.725,0.725,0,0,0,.732-0.72v-3.77C491,2778.02,486.887,2773.18,481.455,2771.66Zm-0.174-14.34a4.987,4.987,0,0,1,1.861,3.88v1.69a4.845,4.845,0,0,1-3.308-2.86,0.742,0.742,0,0,0-1.33-.09,6.924,6.924,0,0,1-5.6,2.99v-1.6c0.024-.25.039-0.52,0.044-0.78a5.112,5.112,0,0,1,3.6-4.17,0.021,0.021,0,0,0,.021-0.01,5.2,5.2,0,0,1,1.192-.2h0.509c0.023,0,.045.01,0.068,0.01,0.06,0,.119.01,0.179,0.01,0.024,0,.048.01,0.072,0.01a1.078,1.078,0,0,1,.178.02c0.021,0,.041.01,0.062,0.01l0.2,0.03a0.064,0.064,0,0,0,.041.01,3.733,3.733,0,0,1,.468.12,0.2,0.2,0,0,0,.073.02c0.046,0.02.093,0.03,0.139,0.05s0.088,0.03.131,0.05a0.177,0.177,0,0,0,.067.02c0.058,0.03.116,0.05,0.174,0.08h0a5.52,5.52,0,0,1,1.106.67A0.191,0.191,0,0,0,481.281,2757.32Zm-8.7.23a10.553,10.553,0,0,0-1.635-3.44l1.934-1.9,1.02,0.21a14.3,14.3,0,0,1,1.5,2.84A6.618,6.618,0,0,0,472.582,2757.55Zm8-2.31a6.608,6.608,0,0,0-2.228-.5c-0.112-.01-0.225-0.01-0.338-0.01s-0.226,0-.339.01a6.387,6.387,0,0,0-.88.1,15.768,15.768,0,0,0-.931-2l0.655,0.14a0.251,0.251,0,0,0,.085.01h0.03a0.061,0.061,0,0,0,.04.01H476.7c0.01,0,.02-0.01.031-0.01h0.053a0.037,0.037,0,0,0,.03-0.01,0.121,0.121,0,0,0,.059-0.01h0.021l0.075-.03c0.009,0,.017-0.01.025-0.01l0.05-.03c0.009,0,.018-0.01.026-0.01l0.048-.03c0.007-.01.014-0.01,0.021-0.02s0.043-.03.063-0.05l1.231-1.21,0.451-.45A18.833,18.833,0,0,1,480.587,2755.24Zm-1.536-9.09,0.135-.14,2.333,0.5-5.073,4.98-2.333-.49Zm-1.677-1.45,0.537,0.53-5.784,5.68-2.662,2.62h0l-3.68,3.61h0l-2.862,2.81h0a0.265,0.265,0,0,1-.2.09,0.063,0.063,0,0,1-.039-0.01,0.224,0.224,0,0,1-.162-0.08l-0.134-.13a0.27,0.27,0,0,1,0-.39l2.888-2.84h0l3.667-3.6h0l2.649-2.6h0Zm-16.023,16.14,0.134,0.13a1.779,1.779,0,0,0,2.473,0l2.134-2.09a4.257,4.257,0,0,1,.256,1.46,4.471,4.471,0,1,1-4.471-4.39,4.663,4.663,0,0,1,1.661.31l-2.188,2.15A1.7,1.7,0,0,0,461.351,2760.84Zm11.749-16.76h0l2.975-2.92,0.5,2.29-5.072,4.98-0.5-2.29Zm-6.4,33.56c-0.02.03-.04,0.07-0.059,0.1l-0.02.03a11.064,11.064,0,0,0-.613,1.21,20.366,20.366,0,0,1-4.127.43,19.073,19.073,0,1,1,0-38.14,19.576,19.576,0,0,1,9.522,2.45l-1.715,1.68a0.682,0.682,0,0,0-.112.15,0.7,0.7,0,0,0-.1.33,0.731,0.731,0,0,0,.016.18l0.129,0.59a16.152,16.152,0,0,0-18.114,1.81,0.7,0.7,0,0,0-.078,1.01,0.741,0.741,0,0,0,1.032.08,14.67,14.67,0,0,1,17.589-.95l0.229,1.05-1.915,1.88a11.244,11.244,0,0,0-6.481-2.06,10.98,10.98,0,0,0-11.07,10.87,10.793,10.793,0,0,0,4,8.37,0.751,0.751,0,0,0,1.032-.09,0.72,0.72,0,0,0-.1-1.02,9.35,9.35,0,0,1-3.472-7.26,9.538,9.538,0,0,1,9.605-9.44,9.765,9.765,0,0,1,5.432,1.66l-2.67,2.62a5.988,5.988,0,0,0-2.762-.67,5.831,5.831,0,1,0,5.935,5.83,5.723,5.723,0,0,0-.6-2.56l2.686-2.64a9.2,9.2,0,0,1,1.588,5.2c0,0.02,0,.04,0,0.05a6.48,6.48,0,0,0-.053.81v0.14a9.558,9.558,0,0,1-9.552,8.44,9.73,9.73,0,0,1-4.286-.99,0.732,0.732,0,0,0-.983.32,0.708,0.708,0,0,0,.328.96,11.2,11.2,0,0,0,14.5-4.25v0.32c0,0.1,0,.19.007,0.29,0,0.01,0,.02,0,0.04s0,0.05.006,0.08c0,0.05.007,0.1,0.011,0.15,0,0.03,0,.06.008,0.09s0.006,0.05.009,0.08,0.007,0.05.011,0.08c0.006,0.05.012,0.1,0.019,0.15s0.02,0.11.03,0.17,0.016,0.09.025,0.14,0.027,0.12.042,0.18c0.009,0.04.018,0.08,0.028,0.12,0.017,0.07.035,0.13,0.054,0.2,0.01,0.03.019,0.07,0.03,0.1,0.021,0.07.045,0.14,0.069,0.21,0.009,0.03.018,0.05,0.028,0.08,0.027,0.08.057,0.15,0.087,0.23a0.239,0.239,0,0,0,.023.05c0.035,0.09.072,0.17,0.11,0.25l0.012,0.03a6.29,6.29,0,0,0,.586.99,14.545,14.545,0,0,1-10.755,4.71,14.365,14.365,0,0,1-14.473-14.22,14.118,14.118,0,0,1,3.248-8.98,0.708,0.708,0,0,0-.1-1.01,0.741,0.741,0,0,0-1.03.11,15.506,15.506,0,0,0-3.578,9.88A15.822,15.822,0,0,0,461.877,2776a16.043,16.043,0,0,0,11.729-5.06,6.535,6.535,0,0,0,.98.72A13.45,13.45,0,0,0,466.7,2777.64Zm13.551,4.35-2.226,2-2.226-2,1.4-5.98h1.646Zm-4.118-9.2,0.19-.03a0.51,0.51,0,0,1,.122-0.02,2.512,2.512,0,0,1,.27-0.04c0.093-.01.186-0.03,0.28-0.04a0.588,0.588,0,0,0,.132-0.01h0.025l0.321-.03H477.6a2.209,2.209,0,0,1,.257-0.01h0.325a2.191,2.191,0,0,1,.256.01h0.09l0.374,0.03c0.049,0,.1.01,0.148,0.01,0.093,0.01.186,0.03,0.28,0.04a2.512,2.512,0,0,1,.27.04,0.518,0.518,0,0,1,.122.02l0.19,0.03-0.933,1.78h-1.919Zm2.1-1.62H478.2c-0.058,0-.115-0.01-0.173-0.01h-0.02c-0.058,0-.116.01-0.174,0.01a5.145,5.145,0,0,1-4.779-3.8c0-.01,0-0.01,0-0.01-0.018-.07-0.034-0.14-0.049-0.21,0-.02-0.007-0.03-0.01-0.05-0.011-.05-0.022-0.11-0.032-0.17a0.652,0.652,0,0,0-.011-0.07c-0.007-.05-0.014-0.11-0.02-0.16,0-.03-0.007-0.05-0.009-0.08-0.006-.05-0.009-0.11-0.013-0.16,0-.03,0-0.05,0-0.08q-0.006-.12-0.006-0.24v-1.76a8.785,8.785,0,0,0,6.142-2.76,5.826,5.826,0,0,0,4.1,2.73v1.79A5.081,5.081,0,0,1,478.228,2771.17Z" transform="translate(-441 -2739.03)"/>
</svg>
