<svg xmlns="http://www.w3.org/2000/svg" xmlns:xlink="http://www.w3.org/1999/xlink" width="35" height="31" viewBox="0 0 35 31">
  <defs>
    <style>
      .cls-1 {
        fill-rule: evenodd;
        fill: url(#linear-gradient);
      }
    </style>
    <linearGradient id="linear-gradient" x1="912.5" y1="5622" x2="912.5" y2="5591" gradientUnits="userSpaceOnUse">
      <stop offset="0" stop-color="#13c5d0"/>
      <stop offset="1" stop-color="#7df4dc"/>
    </linearGradient>
  </defs>
  <path id="Icon" class="cls-1" d="M914.414,5615.77a0.679,0.679,0,0,0-.684.68v2.16a3.408,3.408,0,0,0,3.418,3.39h9.434a3.407,3.407,0,0,0,3.418-3.39v-8.12a3.405,3.405,0,0,0-3.418-3.38H922.16c0.155-5.06,2.093-7.69,5.91-8.03a0.677,0.677,0,0,0,.622-0.68v-6.72a0.691,0.691,0,0,0-.214-0.5,0.681,0.681,0,0,0-.47-0.18H927.97c-4.711.26-8.307,1.87-10.688,4.77-2.357,2.87-3.552,7.07-3.552,12.48v2.42a0.684,0.684,0,0,0,1.368,0v-2.42c0-9.93,4-15.12,12.226-15.85v5.41a6.852,6.852,0,0,0-4.785,2.85,12.406,12.406,0,0,0-1.757,7.13,0.677,0.677,0,0,0,.684.67h5.116a2.042,2.042,0,0,1,2.051,2.03v8.12a2.042,2.042,0,0,1-2.051,2.03h-9.434a2.042,2.042,0,0,1-2.05-2.03v-2.16A0.679,0.679,0,0,0,914.414,5615.77Zm-16,6.23h9.434a3.407,3.407,0,0,0,3.417-3.39v-8.12a3.405,3.405,0,0,0-3.417-3.38h-4.423c0.156-5.06,2.093-7.69,5.911-8.03a0.676,0.676,0,0,0,.621-0.68v-6.72a0.687,0.687,0,0,0-.214-0.5,0.677,0.677,0,0,0-.469-0.18h-0.039c-4.71.26-8.306,1.87-10.688,4.77-2.356,2.87-3.551,7.07-3.551,12.48v10.36A3.407,3.407,0,0,0,898.418,5622Zm-2.051-13.75c0-9.93,4-15.12,12.227-15.85v5.41a6.856,6.856,0,0,0-4.786,2.85,12.414,12.414,0,0,0-1.756,7.13,0.677,0.677,0,0,0,.683.67h5.117a2.042,2.042,0,0,1,2.05,2.03v8.12a2.042,2.042,0,0,1-2.05,2.03h-8.2v-5.01a0.684,0.684,0,0,0-1.367,0v5.01a2.042,2.042,0,0,1-1.914-2.03v-10.36Zm2.6,5.71a0.68,0.68,0,1,0-.684-0.68v0.01A0.677,0.677,0,0,0,898.965,5613.96Zm15.449,0.28a0.685,0.685,0,0,0,.684-0.68v-0.01a0.684,0.684,0,0,0-1.368,0v0.01A0.685,0.685,0,0,0,914.414,5614.24Z" transform="translate(-895 -5591)"/>
</svg>
