<svg xmlns="http://www.w3.org/2000/svg" xmlns:xlink="http://www.w3.org/1999/xlink" width="50" height="50" viewBox="0 0 50 50">
  <defs>
    <style>
      .cls-1 {
        fill-rule: evenodd;
        fill: url(#linear-gradient);
      }
    </style>
    <linearGradient id="linear-gradient" x1="887" y1="2789" x2="887" y2="2739" gradientUnits="userSpaceOnUse">
      <stop offset="0" stop-color="#13c5d0"/>
      <stop offset="1" stop-color="#7df4dc"/>
    </linearGradient>
  </defs>
  <path id="Forma_1" data-name="Forma 1" class="cls-1" d="M904.187,2739H869.812a7.818,7.818,0,0,0-7.812,7.81v34.38a7.824,7.824,0,0,0,7.812,7.81h34.375a7.825,7.825,0,0,0,7.813-7.81v-34.38A7.818,7.818,0,0,0,904.187,2739Zm6.25,42.19a6.26,6.26,0,0,1-6.25,6.25H869.812a6.261,6.261,0,0,1-6.25-6.25v-34.38a6.261,6.261,0,0,1,6.25-6.25h34.375a6.26,6.26,0,0,1,6.25,6.25v34.38Zm-6.25-37.5H869.812a3.125,3.125,0,0,0-3.125,3.12v34.38a3.125,3.125,0,0,0,3.125,3.12h34.375a3.124,3.124,0,0,0,3.125-3.12v-34.38A3.124,3.124,0,0,0,904.187,2743.69Zm-34.375,1.56h34.375a1.563,1.563,0,0,1,1.563,1.56v21.1h-3.583l-1.538-1.54a3.126,3.126,0,1,0-5.383,0l-2.3,2.3a3.122,3.122,0,0,0-4.083,0l-8.3-8.3a3.156,3.156,0,0,0,.183-1.06,3.125,3.125,0,0,0-6.25,0,3.177,3.177,0,0,0,.189,1.08l-6.439,6.43v-20.01A1.562,1.562,0,0,1,869.812,2745.25Zm26.563,19.53a1.563,1.563,0,1,1,1.562,1.56A1.562,1.562,0,0,1,896.375,2764.78Zm-5.469,4.69a1.56,1.56,0,1,1-1.562,1.56A1.563,1.563,0,0,1,890.906,2769.47Zm-14.844-10.16a1.563,1.563,0,1,1,1.563,1.56A1.563,1.563,0,0,1,876.062,2759.31Zm28.125,23.44H869.812a1.562,1.562,0,0,1-1.562-1.56v-12.16l7.346-7.34a3.12,3.12,0,0,0,4.07-.01l8.3,8.3a3.056,3.056,0,0,0-.183,1.05,3.125,3.125,0,1,0,6.067-1.05l2.5-2.51a3.078,3.078,0,0,0,3.172,0l1.767,1.77a0.77,0.77,0,0,0,.553.23h3.906v11.72A1.563,1.563,0,0,1,904.187,2782.75Zm-32.812-34.38h2.344v-1.56h-3.125a0.781,0.781,0,0,0-.782.78v3.13h1.563v-2.35Zm31.25,31.25h-2.344v1.57h3.125a0.781,0.781,0,0,0,.781-0.78v-3.13h-1.562v2.34Zm-24.219-28.12h1.563v-1.56h-1.628a1.52,1.52,0,0,0-1.5,1.56v3.12h1.562v-3.12Zm3.906,0.78h7.813a0.781,0.781,0,0,0,.781-0.78v-3.13a0.781,0.781,0,0,0-.781-0.78h-7.813a0.781,0.781,0,0,0-.781.78v3.13A0.781,0.781,0,0,0,882.312,2752.28Zm0.782-3.12h6.25v1.56h-6.25v-1.56Zm-1.563,4.68h9.375v1.57h-9.375v-1.57Zm4.688,3.13h4.687v1.56h-4.687v-1.56Zm-0.782,19.53h-1.562v1.56H885.5a1.533,1.533,0,0,0,1.5-1.56v-3.13h-1.563v3.13Zm-3.906-.78h-7.812a0.781,0.781,0,0,0-.782.78v3.12a0.784,0.784,0,0,0,.782.79h7.812a0.783,0.783,0,0,0,.781-0.79v-3.12A0.781,0.781,0,0,0,881.531,2775.72Zm-0.781,3.12H874.5v-1.56h6.25v1.56Zm-7.813-6.25h9.375v1.57h-9.375v-1.57Zm0-3.12h4.688v1.56h-4.688v-1.56Z" transform="translate(-862 -2739)"/>
</svg>
