<svg xmlns="http://www.w3.org/2000/svg" width="61" height="61" viewBox="0 0 61 61">
  <defs>
    <style>
      .cls-1 {
        fill: #fff;
        fill-rule: evenodd;
      }
    </style>
  </defs>
  <path id="Icon" class="cls-1" d="M605.994,739H569.06a1.192,1.192,0,0,0,0,2.383h32.674A4.97,4.97,0,0,0,600.99,744v15.605a1.192,1.192,0,0,0,2.383,0v-3.692h6.433A1.192,1.192,0,0,0,611,754.726V744A5.009,5.009,0,0,0,605.994,739Zm2.621,14.534h-5.242V744a2.621,2.621,0,0,1,5.242,0v9.53h0Zm1.083,34.018-7.782-7.782a13.819,13.819,0,1,0-25.321-1.116l-1.394,1.394-5.736-5.736a1.191,1.191,0,0,0-1.685,0l-1.341,1.341V764.774a1.192,1.192,0,1,0-2.383,0v13.262l-10.772,10.772a1.191,1.191,0,1,0,1.685,1.685l9.087-9.087v8.586h-5.241a1.191,1.191,0,0,0-1.191,1.191V795a5.009,5.009,0,0,0,5,5h35.742a5.01,5.01,0,0,0,5-5v-1.022a4.427,4.427,0,0,0,3.106,1.254H606.5A4.511,4.511,0,0,0,609.7,787.552Zm-20.2-25.283a11.438,11.438,0,1,1-10.048,16.9l6.885-6.885v2.7a1.192,1.192,0,0,0,2.383,0v-5.718a1.192,1.192,0,0,0-1.191-1.192H581.81a1.192,1.192,0,0,0,0,2.383h2.98l-6.311,6.312A11.44,11.44,0,0,1,589.5,762.269Zm-26.872,35.347A2.624,2.624,0,0,1,560.006,795v-2.621h33.359v1.43a1.093,1.093,0,0,0,.006.115,1.112,1.112,0,0,0-.006.116V795a4.97,4.97,0,0,0,.744,2.621H562.627ZM600.99,795a2.621,2.621,0,0,1-5.242,0v-0.96a1.115,1.115,0,0,1,0-.231v-2.621a1.192,1.192,0,0,0-1.191-1.192H566.439V779.023l2.183-2.184,5.736,5.736a1.191,1.191,0,0,0,1.685,0l1.666-1.666a13.809,13.809,0,0,0,17.827,5.228l5.454,5.454V795Zm7-2.776a2.12,2.12,0,0,1-1.5.624h-0.01a2.064,2.064,0,0,1-1.47-.6l-7.372-7.372a13.96,13.96,0,0,0,3.007-3l7.369,7.369A2.111,2.111,0,0,1,607.99,792.219Zm-10.948-19.7a1.192,1.192,0,0,0-1.191,1.192,6.36,6.36,0,0,1-6.352,6.352,1.192,1.192,0,1,0,0,2.383,8.745,8.745,0,0,0,8.734-8.735A1.192,1.192,0,0,0,597.042,772.515Zm-16.528-13.023h-1.088V751.51a1.191,1.191,0,0,0-1.191-1.192h-5.471a1.191,1.191,0,0,0-1.191,1.192v7.982h-1.916V746.624a1.191,1.191,0,0,0-1.191-1.191h-5.242a1.192,1.192,0,0,0-1.192,1.191v12.868h-1.906V754.25a1.191,1.191,0,0,0-1.191-1.192h-5.242a1.191,1.191,0,0,0-1.191,1.192v5.242h-1.311a1.191,1.191,0,0,0,0,2.382h29.323A1.191,1.191,0,1,0,580.514,759.492Zm-22.77,0h-2.859v-4.051h2.859v4.051Zm9.531,0h-2.86V747.816h2.86v11.676Zm9.769,0h-3.089V752.7h3.089v6.791Zm13.16-14.059h-9.229a1.192,1.192,0,0,0,0,2.383H590.2A1.192,1.192,0,0,0,590.2,745.433Zm6.736,0.349a1.191,1.191,0,1,0,.349.842A1.2,1.2,0,0,0,596.94,745.782Zm-11.35,4.893h-1.954a1.192,1.192,0,0,0,0,2.383h1.954A1.192,1.192,0,0,0,585.59,750.675Zm10.507,0H590.2a1.192,1.192,0,0,0,0,2.383H596.1A1.192,1.192,0,0,0,596.1,750.675Zm-44.062,41.067a1.192,1.192,0,0,0-2.034.843,1.192,1.192,0,0,0,2.383,0A1.2,1.2,0,0,0,552.035,791.742Z" transform="translate(-550 -739)"/>
</svg>
