<svg xmlns="http://www.w3.org/2000/svg" width="60" height="60" viewBox="0 0 60 60">
  <defs>
    <style>
      .cls-1 {
        fill: #fff;
        fill-rule: evenodd;
      }
    </style>
  </defs>
  <path id="Icon" class="cls-1" d="M1360.62,3156.33h-21.13a1.17,1.17,0,1,0,0,2.34h21.13A1.17,1.17,0,0,0,1360.62,3156.33Zm0.83,5.97a1.159,1.159,0,0,0-1.66,0,1.133,1.133,0,0,0-.34.82,1.167,1.167,0,0,0,2,.83,1.217,1.217,0,0,0,.34-0.83A1.174,1.174,0,0,0,1361.45,3162.3Zm-5.84-.35h-16.12a1.175,1.175,0,0,0,0,2.35h16.12A1.175,1.175,0,0,0,1355.61,3161.95Zm5.01,5.63h-16.2a1.17,1.17,0,0,0,0,2.34h16.2A1.17,1.17,0,0,0,1360.62,3167.58Zm-21.06,0h-0.08a1.17,1.17,0,1,0,0,2.34h0.08A1.17,1.17,0,0,0,1339.56,3167.58Zm25.17,25.08-3.41-1.13a6.538,6.538,0,0,0,1.42-4.08v-1.41a6.575,6.575,0,0,0-13.15,0v1.41a6.547,6.547,0,0,0,1.43,4.08l-3.39,1.12-3.26-1.08a8.623,8.623,0,0,0,2.31-5.88v-1.95c0-.17-0.01-0.33-0.01-0.49a0.035,0.035,0,0,0-.01-0.02,8.662,8.662,0,0,0-17.31.51v1.95a8.623,8.623,0,0,0,2.31,5.88l-3.28,1.09-3.4-1.13a6.547,6.547,0,0,0,1.43-4.08v-1.41a6.575,6.575,0,0,0-13.15,0v1.41a6.538,6.538,0,0,0,1.42,4.08l-3.41,1.13a4.778,4.778,0,0,0-3.27,4.54v6.93a1.165,1.165,0,0,0,1.17,1.17h12.89v3.53a1.178,1.178,0,0,0,1.17,1.17h29.57a1.178,1.178,0,0,0,1.17-1.17v-3.53h12.86a1.165,1.165,0,0,0,1.17-1.17v-6.93A4.778,4.778,0,0,0,1364.73,3192.66Zm-12.79-6.62h0a4.23,4.23,0,0,1,8.46,0v1.41a4.232,4.232,0,0,1-1.88,3.51,1.373,1.373,0,0,0-.2.13,4.155,4.155,0,0,1-2.15.59h0a4.128,4.128,0,0,1-2.15-.59,2.392,2.392,0,0,0-.21-0.13,4.223,4.223,0,0,1-1.87-3.51v-1.41h0Zm-13.93-8.62a4.5,4.5,0,1,1,4.03,5.62,6.067,6.067,0,0,1-4.83-2.37,1.16,1.16,0,0,0-.93-0.46,1.189,1.189,0,0,0-.93.46,6.053,6.053,0,0,1-3.6,2.25A6.324,6.324,0,0,1,1338.01,3177.42Zm-6.32,7.89a7.074,7.074,0,0,1,10.35.08,8.513,8.513,0,0,0,2.3-.32v0.62a6.342,6.342,0,0,1-2.84,5.28,0.974,0.974,0,0,0-.24.15,6.3,6.3,0,0,1-6.49,0,0.974,0.974,0,0,0-.24-0.15,6.342,6.342,0,0,1-2.84-5.28v-0.38h0Zm9.9,8.28-3.58,3.57-3.57-3.57A8.684,8.684,0,0,0,1341.59,3193.59Zm-25.99-7.55h0a4.23,4.23,0,0,1,8.46,0v1.41a4.223,4.223,0,0,1-1.87,3.51,2.392,2.392,0,0,0-.21.13,4.212,4.212,0,0,1-4.3,0,1.373,1.373,0,0,0-.2-0.13,4.207,4.207,0,0,1-1.88-3.51v-1.41Zm6.46,13.17v3.75h-11.72v-5.76a2.429,2.429,0,0,1,1.67-2.31l4.81-1.6a6.505,6.505,0,0,0,3.01.74h0a6.475,6.475,0,0,0,3.01-.74l2.1,0.7A6.145,6.145,0,0,0,1322.06,3199.21Zm26.5,8.45v-4.11a1.175,1.175,0,0,0-2.35,0v4.11h-16.42v-4.11a1.175,1.175,0,0,0-2.35,0v4.11h-3.04v-8.45a3.825,3.825,0,0,1,2.63-3.63l4.57-1.52,5.59,5.58a1.136,1.136,0,0,0,.82.35,1.175,1.175,0,0,0,.83-0.35l5.59-5.58,4.57,1.52a3.825,3.825,0,0,1,2.63,3.63v8.45h-3.07Zm17.1-4.7h-11.69v-3.75a6.171,6.171,0,0,0-2.89-5.23l2.08-.69a6.492,6.492,0,0,0,6.02,0l4.81,1.6a2.429,2.429,0,0,1,1.67,2.31v5.76h0Zm-3.52-52.96h-48.28a5.868,5.868,0,0,0-5.86,5.86v15.7a5.868,5.868,0,0,0,5.86,5.86h11.97a1.175,1.175,0,0,0,0-2.35h-11.97a3.517,3.517,0,0,1-3.52-3.51v-15.7a3.525,3.525,0,0,1,3.52-3.52h48.28a3.525,3.525,0,0,1,3.52,3.52v15.7a3.517,3.517,0,0,1-3.52,3.51h-8.75a1.2,1.2,0,0,0-.69.22l-2.61,1.89v-0.93a1.174,1.174,0,0,0-1.17-1.18h-2.6a1.175,1.175,0,0,0,0,2.35h1.43v2.05a1.165,1.165,0,0,0,1.17,1.17,1.127,1.127,0,0,0,.68-0.22l4.17-3h8.37a5.868,5.868,0,0,0,5.86-5.86v-15.7A5.868,5.868,0,0,0,1362.14,3150Zm-31.99,5.62h-13.12a3.29,3.29,0,0,0-3.29,3.28v9.61a3.29,3.29,0,0,0,3.29,3.28h13.12a3.282,3.282,0,0,0,3.28-3.28v-9.61A3.282,3.282,0,0,0,1330.15,3155.62Zm0.94,12.89a0.945,0.945,0,0,1-.94.94h-13.12a0.939,0.939,0,0,1-.94-0.94v-9.61a0.937,0.937,0,0,1,.94-0.93h13.12a0.943,0.943,0,0,1,.94.93v9.61Zm-4.49-6.97-2.77-1.6a2.5,2.5,0,0,0-3.75,2.17v3.2a2.493,2.493,0,0,0,3.75,2.16l2.77-1.6A2.5,2.5,0,0,0,1326.6,3161.54Zm-1.17,2.3-2.77,1.6a0.144,0.144,0,0,1-.16,0,0.136,0.136,0,0,1-.08-0.13v-3.2a0.156,0.156,0,0,1,.08-0.14,0.134,0.134,0,0,1,.08-0.02,0.291,0.291,0,0,1,.08.02l2.77,1.6a0.153,0.153,0,0,1,.08.14A0.134,0.134,0,0,1,1325.43,3163.84Zm13.4,38.65a1.183,1.183,0,1,0,.34.83A1.173,1.173,0,0,0,1338.83,3202.49Z" transform="translate(-1308 -3150)"/>
</svg>
