<svg xmlns="http://www.w3.org/2000/svg" width="63.03" height="63" viewBox="0 0 63.03 63">
  <defs>
    <style>
      .cls-1 {
        fill: #fff;
        fill-rule: evenodd;
      }
    </style>
  </defs>
  <path id="Icon1" class="cls-1" d="M1335.54,2757.95a1.253,1.253,0,0,0-.87-0.37,1.235,1.235,0,0,0-.87.37,1.219,1.219,0,0,0,0,1.73,1.235,1.235,0,0,0,.87.37,1.253,1.253,0,0,0,.87-0.37A1.219,1.219,0,0,0,1335.54,2757.95Zm26.73,16.39-8.75-8.76a6.967,6.967,0,0,0-5.72-10.95,6.909,6.909,0,0,0-3.98,1.25l-8.76-8.75a1.217,1.217,0,0,0-1.1-.34,1.247,1.247,0,0,0-.9.72l-11.94,28.06-6.49,6.48a9,9,0,0,0,12.73,12.73l1.05-1.06,6.92,6.92a1.218,1.218,0,0,0,.87.36,1.235,1.235,0,0,0,.87-0.36l4.72-4.73a1.231,1.231,0,0,0,0-1.74l-6.49-6.49,26.59-11.34a1.247,1.247,0,0,0,.72-0.9A1.217,1.217,0,0,0,1362.27,2774.34Zm-14.47-17.25a4.511,4.511,0,0,1,3.94,6.71l-6.14-6.14A4.507,4.507,0,0,1,1347.8,2757.09Zm-22.18,35.94a6.537,6.537,0,0,1-9.25-9.24l5.78-5.78,0.18,0.18,9.07,9.06Zm13.56,2.01-2.98,2.99-6.05-6.05,2.99-2.98Zm15.25-18.2-0.07-.07-15.59-15.59a1.23,1.23,0,0,0-1.74,1.74l14.96,14.96-18.57,7.92-9.81-9.81,11-25.84,24.64,24.64Zm8.64-30.44a1.231,1.231,0,0,0-1.74,0l-3.3,3.3a1.231,1.231,0,0,0,0,1.74,1.218,1.218,0,0,0,.87.36,1.235,1.235,0,0,0,.87-0.36l3.3-3.3A1.231,1.231,0,0,0,1363.07,2746.4Zm-6.32,6.32a1.231,1.231,0,1,0,.36.87A1.243,1.243,0,0,0,1356.75,2752.72Zm-7.67-11.21a1.238,1.238,0,0,0-1.23,1.24v4.52a1.23,1.23,0,1,0,2.46,0v-4.52A1.238,1.238,0,0,0,1349.08,2741.51Zm17.62,17.46h-4.67a1.23,1.23,0,1,0,0,2.46h4.67A1.23,1.23,0,0,0,1366.7,2758.97Zm-1.76,28.09a3.69,3.69,0,1,0,3.69,3.69A3.7,3.7,0,0,0,1364.94,2787.06Zm0,4.92a1.23,1.23,0,1,1,1.23-1.23A1.238,1.238,0,0,1,1364.94,2791.98Zm9.65,0.59-1.32-1.2c0.01-.2.02-0.41,0.02-0.62s-0.01-.41-0.02-0.62l1.32-1.2a1.232,1.232,0,0,0,.24-1.53l-2.05-3.55a1.224,1.224,0,0,0-1.44-.55l-1.7.55a7.2,7.2,0,0,0-1.08-.62l-0.37-1.75a1.232,1.232,0,0,0-1.21-.97h-4.09a1.232,1.232,0,0,0-1.21.97l-0.37,1.75a7.731,7.731,0,0,0-1.08.62l-1.7-.55a1.224,1.224,0,0,0-1.44.55l-2.05,3.55a1.232,1.232,0,0,0,.24,1.53l1.33,1.2c-0.02.21-.03,0.42-0.03,0.62s0.01,0.42.03,0.62l-1.33,1.2a1.234,1.234,0,0,0-.24,1.53l2.05,3.55a1.224,1.224,0,0,0,1.44.55l1.7-.54a8.878,8.878,0,0,0,1.08.62l0.37,1.75a1.242,1.242,0,0,0,1.21.97h4.09a1.242,1.242,0,0,0,1.21-.97l0.37-1.75a8.181,8.181,0,0,0,1.08-.62l1.7,0.54a1.224,1.224,0,0,0,1.44-.55l2.05-3.55A1.234,1.234,0,0,0,1374.59,2792.57Zm-3.44,2.99-1.36-.44a1.224,1.224,0,0,0-1.15.21,5.888,5.888,0,0,1-1.59.92,1.242,1.242,0,0,0-.76.89l-0.3,1.4h-2.11l-0.3-1.4a1.221,1.221,0,0,0-.76-0.89,5.888,5.888,0,0,1-1.59-.92,1.224,1.224,0,0,0-1.15-.21l-1.36.44-1.05-1.83,1.05-.95a1.224,1.224,0,0,0,.39-1.11,6.989,6.989,0,0,1-.07-0.92,7.122,7.122,0,0,1,.07-0.92,1.206,1.206,0,0,0-.39-1.1l-1.05-.96,1.05-1.82,1.36,0.44a1.255,1.255,0,0,0,1.15-.22,5.888,5.888,0,0,1,1.59-.92,1.225,1.225,0,0,0,.76-0.89l0.3-1.39h2.11l0.3,1.39a1.2,1.2,0,0,0,.76.89,5.888,5.888,0,0,1,1.59.92,1.255,1.255,0,0,0,1.15.22l1.36-.44,1.05,1.82-1.05.96a1.206,1.206,0,0,0-.39,1.1,7.122,7.122,0,0,1,.07.92,6.989,6.989,0,0,1-.07.92,1.224,1.224,0,0,0,.39,1.11l1.05,0.95Zm3.75-48.36-3.57-8.45a1.226,1.226,0,0,0-2.26,0l-3.57,8.45a1.228,1.228,0,0,0,.66,1.61,1.1,1.1,0,0,0,.47.1,1.238,1.238,0,0,0,1.14-.75l0.44-1.06h3.98l0.44,1.06A1.232,1.232,0,0,0,1374.9,2747.2Zm-5.65-2.56,0.95-2.25,0.95,2.25h-1.9Zm-43.99-6.64h-10.28a2.987,2.987,0,0,0-2.98,2.98v9.05a2.987,2.987,0,0,0,2.98,2.98h10.28a2.987,2.987,0,0,0,2.98-2.98v-9.05A2.987,2.987,0,0,0,1325.26,2738Zm0.52,12.03a0.516,0.516,0,0,1-.52.52h-10.28a0.516,0.516,0,0,1-.52-0.52v-9.05a0.516,0.516,0,0,1,.52-0.52h10.28a0.516,0.516,0,0,1,.52.52v9.05h0Zm-3.49-6.79-1.87-1.09a2.62,2.62,0,0,0-3.93,2.27v2.17a2.608,2.608,0,0,0,3.93,2.26l1.87-1.08A2.613,2.613,0,0,0,1322.29,2743.24Zm-1.23,2.4-1.87,1.08a0.127,0.127,0,0,1-.16,0,0.136,0.136,0,0,1-.08-0.13v-2.17a0.156,0.156,0,0,1,.08-0.14,0.309,0.309,0,0,1,.08-0.02,0.454,0.454,0,0,1,.08.02l1.87,1.09a0.134,0.134,0,0,1,.08.13A0.14,0.14,0,0,1,1321.06,2745.64Zm-0.93,19.18h-0.89a1.23,1.23,0,1,0,0,2.46h0.89A1.23,1.23,0,0,0,1320.13,2764.82Zm-3.45-3.41a1.229,1.229,0,0,0-1.23,1.23v0.78a1.23,1.23,0,0,0,2.46,0v-0.78A1.229,1.229,0,0,0,1316.68,2761.41Zm-2.67,3.41h-0.78a1.23,1.23,0,1,0,0,2.46h0.78A1.23,1.23,0,1,0,1314.01,2764.82Zm2.67,2.59a1.229,1.229,0,0,0-1.23,1.23v0.89a1.23,1.23,0,1,0,2.46,0v-0.89A1.229,1.229,0,0,0,1316.68,2767.41Z" transform="translate(-1312 -2738)"/>
</svg>
