<svg xmlns="http://www.w3.org/2000/svg" width="63" height="63" viewBox="0 0 63 63">
  <defs>
    <style>
      .cls-1 {
        fill: #fff;
        fill-rule: evenodd;
      }
    </style>
  </defs>
  <path id="icon" class="cls-1" d="M989.769,1168H929.23a1.23,1.23,0,0,0-1.23,1.23v6.64a1.23,1.23,0,0,0,1.23,1.23h2.113V1192a1.231,1.231,0,0,0,2.461,0v-14.9H985.2v1.98a1.263,1.263,0,0,0-.925.36l-3.14,3.14a4.073,4.073,0,0,0-1.564-.32,4.014,4.014,0,0,0-3.69,5.58l-4.062,4.06a4,4,0,0,0-1.826-.44,3.956,3.956,0,0,0-1.816.43l-4.263-4.26a4.008,4.008,0,1,0-7.215-.25l-4.657,4.66a1.23,1.23,0,0,0,1.74,1.74l4.556-4.56a3.947,3.947,0,0,0,3.818.13l4.276,4.28a3.96,3.96,0,0,0-.447,1.83,4.008,4.008,0,1,0,7.574-1.82l3.937-3.94a3.966,3.966,0,0,0,2.075.58,4.014,4.014,0,0,0,4.007-4.01,3.948,3.948,0,0,0-.579-2.07l2.2-2.2v27.1h-4.408v-10.34a1.231,1.231,0,0,0-2.461,0v10.34h-7.136v-6.52a1.231,1.231,0,0,0-2.461,0v6.52h-7.137v-12.8a1.231,1.231,0,0,0-2.461,0v12.8h-1.468a1.23,1.23,0,1,0,0,2.46h28.763a1.23,1.23,0,0,0,1.23-1.23V1177.1h2.112a1.23,1.23,0,0,0,1.231-1.23v-6.64A1.23,1.23,0,0,0,989.769,1168Zm-29.406,19.31a1.545,1.545,0,1,1,1.547-1.54A1.545,1.545,0,0,1,960.363,1187.31Zm9.626,9.7a1.545,1.545,0,1,1,1.547-1.55A1.547,1.547,0,0,1,969.989,1197.01Zm9.578-9.19a1.55,1.55,0,1,1,.876-2.82h0.006a1,1,0,0,0,.2.16A1.549,1.549,0,0,1,979.567,1187.82Zm8.972-13.18H930.461v-4.18h58.078v4.18Zm-33.749,40.31-0.03-.01v-10.62a10.394,10.394,0,0,0-20.788,0v10.62l-0.034.01a8.464,8.464,0,0,0-5.938,8.1v6.72a1.23,1.23,0,0,0,1.23,1.23H959.5a1.23,1.23,0,0,0,1.23-1.23v-6.72A8.462,8.462,0,0,0,954.79,1214.95Zm-24.329,13.59v-5.49a6,6,0,0,1,4.218-5.75l0.509-.16,1.435,2.72-1.061,1.06a1.23,1.23,0,0,0-.175,1.52l3.787,6.1h-8.713Zm9.694-3.09-2.163-3.48,1.013-1.02a1.225,1.225,0,0,0,.218-1.44l-1.65-3.13,2.582-.81v9.88Zm0-12.46-3.722,1.17v-9.84a7.933,7.933,0,0,1,15.866,0v9.84l-3.721-1.17v-0.05a7.2,7.2,0,0,0,3-5.85v-3.35a1.225,1.225,0,0,0-.6-1.06,1.251,1.251,0,0,0-1.215-.03,4.581,4.581,0,0,1-5.809-1.24,1.244,1.244,0,0,0-1.948,0,4.541,4.541,0,0,1-3.627,1.79,1.23,1.23,0,0,0-1.231,1.23v2.66a7.229,7.229,0,0,0,3.007,5.86v0.04h0Zm5.962,15.55h-3.5v-14.45a7.074,7.074,0,0,0,3.5,0v14.45Zm0.838-17.47a1.323,1.323,0,0,0-.423.25,4.786,4.786,0,0,1-2.169.52,4.718,4.718,0,0,1-2.152-.51,1.121,1.121,0,0,0-.449-0.26,4.762,4.762,0,0,1-2.153-3.98v-1.54a6.9,6.9,0,0,0,3.371-1.6,6.983,6.983,0,0,0,4.6,1.71,7.187,7.187,0,0,0,1.536-.17v1.6A4.745,4.745,0,0,1,946.955,1211.07Zm1.623,4.5,2.582,0.81-1.649,3.13a1.222,1.222,0,0,0,.218,1.44l1.013,1.02-2.164,3.48v-9.88h0Zm9.689,12.97H949.56l3.787-6.1a1.23,1.23,0,0,0-.175-1.52l-1.061-1.06,1.435-2.72,0.5,0.16a6,6,0,0,1,4.218,5.75v5.49Zm22.161-35.57a1.231,1.231,0,1,0,.36.87A1.236,1.236,0,0,0,980.428,1192.97Zm-31.307-10.45H938.379a1.23,1.23,0,1,0,0,2.46h10.742A1.23,1.23,0,1,0,949.121,1182.52Zm0.87,5.28a1.23,1.23,0,1,0,0,1.74A1.231,1.231,0,0,0,949.991,1187.8Zm-5.625-.36h-5.987a1.23,1.23,0,1,0,0,2.46h5.987A1.23,1.23,0,0,0,944.366,1187.44Z" transform="translate(-928 -1168)"/>
</svg>
