<svg xmlns="http://www.w3.org/2000/svg" width="60" height="60" viewBox="0 0 60 60">
  <defs>
    <style>
      .cls-1 {
        fill: #fff;
        fill-rule: evenodd;
      }
    </style>
  </defs>
  <path id="Icon" class="cls-1" d="M963.219,2959.75h-8.438a1.17,1.17,0,1,0,0,2.34h8.438A1.17,1.17,0,1,0,963.219,2959.75Zm14.422,31.32a1.173,1.173,0,0,0-2,.83,1.144,1.144,0,0,0,.344.82,1.156,1.156,0,0,0,1.657,0,1.161,1.161,0,0,0,.343-0.82A1.184,1.184,0,0,0,977.641,2991.07Zm-0.829,4.11a1.169,1.169,0,0,0-1.172,1.17v8.62H942.359v-2.8h9.718a2.7,2.7,0,0,0,2.7-2.7v-14.05a2.7,2.7,0,0,0-2.7-2.7h-2.67l-2.72-2.72a1.169,1.169,0,0,0-1.658,0l-2.72,2.72H931.7a2.7,2.7,0,0,0-2.7,2.7v14.05a2.7,2.7,0,0,0,2.7,2.7h8.311v9.23a4.61,4.61,0,0,0,4.6,4.6h28.767a4.61,4.61,0,0,0,4.6-4.6v-15.05A1.168,1.168,0,0,0,976.812,2995.18Zm-45.108,4.65a0.366,0.366,0,0,1-.36-0.36v-14.05a0.359,0.359,0,0,1,.36-0.36h11.09a1.169,1.169,0,0,0,.829-0.34l2.235-2.24,2.235,2.24a1.169,1.169,0,0,0,.829.34h3.155a0.359,0.359,0,0,1,.36.36v14.05a0.366,0.366,0,0,1-.36.36H931.7Zm43.936,11.57a2.256,2.256,0,0,1-2.257,2.25H944.616a2.257,2.257,0,0,1-2.257-2.25v-4.08H975.64v4.08Zm-15.812-1.88a1.161,1.161,0,1,0,.344.82A1.178,1.178,0,0,0,959.828,3009.52Zm26.468-41.8h-8.312v-7.12a4.6,4.6,0,0,0-4.6-4.6H944.616a4.6,4.6,0,0,0-4.6,4.6v18.37a1.172,1.172,0,1,0,2.344,0v-13.13H975.64v1.88h-9.718a2.7,2.7,0,0,0-2.7,2.7v14.05a2.7,2.7,0,0,0,2.7,2.7h2.185l2.72,2.72a1.181,1.181,0,0,0,1.658,0l2.72-2.72H986.3a2.7,2.7,0,0,0,2.7-2.7v-14.05A2.7,2.7,0,0,0,986.3,2967.72Zm-43.937-4.22v-2.9a2.259,2.259,0,0,1,2.257-2.26h28.767a2.258,2.258,0,0,1,2.257,2.26v2.9H942.359Zm44.3,20.97a0.366,0.366,0,0,1-.36.36H974.72a1.169,1.169,0,0,0-.829.34l-2.235,2.23-2.235-2.23a1.169,1.169,0,0,0-.829-0.34h-2.67a0.366,0.366,0,0,1-.36-0.36v-14.05a0.36,0.36,0,0,1,.36-0.36H986.3a0.359,0.359,0,0,1,.36.36v14.05h0Zm-5.869-8.54-4.479-2.88a2.342,2.342,0,0,0-3.6,1.97v5.75a2.347,2.347,0,0,0,2.339,2.34,2.392,2.392,0,0,0,1.263-.37l4.479-2.87a2.34,2.34,0,0,0,1.077-1.97A2.315,2.315,0,0,0,980.787,2975.93Zm-5.737,4.83v-5.73l4.467,2.87Zm-26.94,10.85a1.172,1.172,0,0,0-2,.83,1.165,1.165,0,0,0,.343.82,1.157,1.157,0,0,0,1.658,0,1.165,1.165,0,0,0,.343-0.82A1.188,1.188,0,0,0,948.11,2991.61Zm-5.743,0a1.172,1.172,0,0,0-2,.83,1.161,1.161,0,0,0,.343.82,1.156,1.156,0,0,0,1.657,0,1.162,1.162,0,0,0,.344-0.82A1.185,1.185,0,0,0,942.367,2991.61Zm-5.742,0a1.172,1.172,0,0,0-2,.83,1.161,1.161,0,0,0,.343.82,1.156,1.156,0,0,0,1.657,0,1.162,1.162,0,0,0,.344-0.82A1.185,1.185,0,0,0,936.625,2991.61Zm23.2-21.78h-14.3a1.17,1.17,0,1,0,0,2.34h14.3A1.17,1.17,0,1,0,959.82,2969.83Zm-8.606,4.68h-5.7a1.175,1.175,0,0,0,0,2.35h5.7A1.175,1.175,0,0,0,951.214,2974.51Zm6.269,0.35a1.172,1.172,0,0,0-2,.83,1.161,1.161,0,0,0,.343.82,1.156,1.156,0,0,0,1.657,0,1.162,1.162,0,0,0,.344-0.82A1.185,1.185,0,0,0,957.483,2974.86ZM971.6,2995.6H959.877a1.17,1.17,0,1,0,0,2.34H971.6A1.17,1.17,0,1,0,971.6,2995.6Zm-5.632,4.69h-6.1a1.17,1.17,0,1,0,0,2.34h6.1A1.17,1.17,0,1,0,965.972,3000.29Z" transform="translate(-929 -2956)"/>
</svg>
