<svg xmlns="http://www.w3.org/2000/svg" width="62" height="62" viewBox="0 0 62 62">
  <defs>
    <style>
      .cls-1 {
        fill: #fffefe;
        fill-rule: evenodd;
      }
    </style>
  </defs>
  <path id="Icon" class="cls-1" d="M1356.77,791.8h0a1.211,1.211,0,1,0,1.21,1.21A1.209,1.209,0,0,0,1356.77,791.8Zm13.02,0h-1.45V762.432a5.76,5.76,0,0,0-5.76-5.751h-4.54a1.211,1.211,0,0,0,0,2.422h4.54a3.331,3.331,0,0,1,3.33,3.329V791.8h-3.33a1.211,1.211,0,0,0,0,2.421h6v1a3.366,3.366,0,0,1-3.36,3.36h-50.44a3.366,3.366,0,0,1-3.36-3.36v-1h39.93a1.211,1.211,0,0,0,0-2.421h-37.26V762.432a3.328,3.328,0,0,1,3.32-3.329h5.21a1.211,1.211,0,0,0,0-2.422h-5.21a5.757,5.757,0,0,0-5.75,5.751V791.8h-1.45a1.209,1.209,0,0,0-1.21,1.21v2.211a5.786,5.786,0,0,0,5.78,5.782h50.44a5.786,5.786,0,0,0,5.78-5.782v-2.211A1.209,1.209,0,0,0,1369.79,791.8Zm-27.09,3.39h-5.34a1.211,1.211,0,0,0,0,2.422h5.34A1.211,1.211,0,1,0,1342.7,795.187Zm-2.7-30.753a12.473,12.473,0,1,0,12.47,12.472A12.483,12.483,0,0,0,1340,764.434Zm-10.05,12.472a9.705,9.705,0,0,1,.27-2.3h2.69v4.6h-2.69A9.707,9.707,0,0,1,1329.95,776.906Zm1.18,4.723h1.78v0.656a7.071,7.071,0,0,0,.29,2.017A10.2,10.2,0,0,1,1331.13,781.629Zm1.78-10.1v0.656h-1.78a10.2,10.2,0,0,1,2.07-2.673A7.071,7.071,0,0,0,1332.91,771.528Zm5.88,15.266a4.678,4.678,0,0,1-3.46-4.509v-0.656h3.46v5.165Zm0-7.587h-3.46v-4.6h3.46v4.6Zm0-7.023h-3.46v-0.656a4.678,4.678,0,0,1,3.46-4.509v5.165Zm10.08,0h-1.78v-0.656a7.071,7.071,0,0,0-.29-2.017A10.2,10.2,0,0,1,1348.87,772.184Zm-4.2,10.1a4.678,4.678,0,0,1-3.46,4.509v-5.165h3.46v0.656Zm0-3.078h-3.46v-4.6h3.46v4.6Zm0-7.023h-3.46v-5.165a4.678,4.678,0,0,1,3.46,4.509v0.656Zm2.13,12.118a7.071,7.071,0,0,0,.29-2.017v-0.656h1.78A10.2,10.2,0,0,1,1346.8,784.3Zm0.29-5.1v-4.6h2.69a9.936,9.936,0,0,1,0,4.6h-2.69Zm-7.09-24.83a1.209,1.209,0,0,0-1.21,1.211v3.876a1.21,1.21,0,1,0,2.42,0v-3.876A1.209,1.209,0,0,0,1340,754.377Zm-12.7-.5a1.187,1.187,0,0,0-.85-0.355,1.211,1.211,0,1,0,0,2.422A1.207,1.207,0,0,0,1327.3,753.875Zm6.18,6.175-3.24-3.239a1.21,1.21,0,0,0-1.71,1.713l3.24,3.238a1.18,1.18,0,0,0,.85.355A1.211,1.211,0,0,0,1333.48,760.05Zm19.35-4.6a1.208,1.208,0,0,0-1.71,0l-4.76,4.763a1.2,1.2,0,0,0,0,1.713,1.184,1.184,0,0,0,.85.355,1.224,1.224,0,0,0,.86-0.355l4.76-4.763A1.2,1.2,0,0,0,1352.83,755.448Zm-10.01-14.027h0.42a1.211,1.211,0,0,0,0-2.421h-0.42a4.037,4.037,0,0,0-4.03,4.033v0.326h0a1.211,1.211,0,0,0,0,2.422h0V750.6a1.21,1.21,0,1,0,2.42,0v-4.822h1.64a1.211,1.211,0,1,0,0-2.422h-1.64v-0.326A1.611,1.611,0,0,1,1342.82,741.421Zm25.32,0.931a1.214,1.214,0,0,0-1.02-.549h-1.01a3.821,3.821,0,0,0-6.04,1.931,8.805,8.805,0,0,1-3.19-2.459,1.208,1.208,0,0,0-1.98.153,4.7,4.7,0,0,0-.64,2.377,4.605,4.605,0,0,0,.3,1.654,1.193,1.193,0,0,0-.33.824v0.042a5.684,5.684,0,0,0,1.62,3.846,4.458,4.458,0,0,1-.79-0.017,1.21,1.21,0,0,0-.78,2.223,8.6,8.6,0,0,0,4.65,1.364,8.428,8.428,0,0,0,6.43-2.831,8.942,8.942,0,0,0,2.21-5.806v-0.1l0.66-1.5A1.205,1.205,0,0,0,1368.14,742.352Zm-2.89,1.925a1.16,1.16,0,0,0-.11.517l0.01,0.323a6.188,6.188,0,0,1-5.7,6.183c0.03-.022.06-0.046,0.09-0.069a1.211,1.211,0,0,0-.74-2.165,2.077,2.077,0,0,1-1.65-1.141,1.213,1.213,0,0,0,.55-2.213,2.309,2.309,0,0,1-.89-1.136,11.1,11.1,0,0,0,4.08,2,1.214,1.214,0,0,0,1.49-1.447,1.881,1.881,0,0,1-.04-0.33,1.4,1.4,0,0,1,2.42-.959,1.233,1.233,0,0,0,.53.33Zm-41.73,2.677h-3.03a1.211,1.211,0,0,0,0,2.422h1.57a3.108,3.108,0,1,1-2.86-4.321,1.211,1.211,0,0,0,0-2.422,5.533,5.533,0,1,0,5.53,5.533A1.21,1.21,0,0,0,1323.52,746.954Zm5.95-4.409h-0.5v-0.5a1.215,1.215,0,0,0-2.43,0v0.5h-0.5a1.212,1.212,0,0,0,0,2.423h0.5v0.5a1.215,1.215,0,0,0,2.43,0v-0.5h0.5A1.212,1.212,0,0,0,1329.47,742.545Zm31.37,33.1h-4.07a1.211,1.211,0,0,0,0,2.422h4.07A1.211,1.211,0,0,0,1360.84,775.645Zm-37.32,0h-4.07a1.211,1.211,0,0,0,0,2.422h4.07A1.211,1.211,0,0,0,1323.52,775.645Z" transform="translate(-1309 -739)"/>
</svg>
