<svg xmlns="http://www.w3.org/2000/svg" width="76" height="76" viewBox="0 0 76 76">
  <defs>
    <style>
      .cls-1 {
        fill: #fff !important;
        fill-rule: evenodd;
      }
    </style>
  </defs>
  <path id="icon" class="cls-1" d="M1260.71,958.954l-27.86-19a1.264,1.264,0,0,0-1.98,1.046v38a1.263,1.263,0,0,0,1.26,1.267,1.3,1.3,0,0,0,.72-0.221l27.86-19A1.257,1.257,0,0,0,1260.71,958.954ZM1233.4,976.6V943.4l24.35,16.6ZM1241,922a38,38,0,1,0,38,38A38.045,38.045,0,0,0,1241,922Zm0,73.466A35.467,35.467,0,1,1,1276.47,960,35.507,35.507,0,0,1,1241,995.466Z" transform="translate(-1203 -922)"/>
</svg>
