<svg xmlns="http://www.w3.org/2000/svg" xmlns:xlink="http://www.w3.org/1999/xlink" width="60" height="54" viewBox="0 0 60 54">
  <defs>
    <style>
      .cls-1 {
        fill-rule: evenodd;
        fill: url(#linear-gradient);
      }
    </style>
    <linearGradient id="linear-gradient" x1="549" y1="1304" x2="609" y2="1304" gradientUnits="userSpaceOnUse">
      <stop offset="0" stop-color="#13c5d0"/>
      <stop offset="1" stop-color="#7df4dc"/>
    </linearGradient>
  </defs>
  <path id="Icon" class="cls-1" d="M584.6,1298.08l-6.116-3.95a2.535,2.535,0,0,0-3.9,2.15v7.89a2.561,2.561,0,0,0,1.319,2.24,2.506,2.506,0,0,0,1.216.31,2.592,2.592,0,0,0,1.368-.4l6.116-3.95A2.555,2.555,0,0,0,584.6,1298.08Zm-1.265,2.31-6.116,3.94a0.175,0.175,0,0,1-.2.01,0.183,0.183,0,0,1-.1-0.17v-7.89a0.183,0.183,0,0,1,.1-0.17,0.174,0.174,0,0,1,.094-0.02,0.184,0.184,0,0,1,.1.03l6.116,3.94a0.188,0.188,0,0,1,.088.17A0.2,0.2,0,0,1,583.331,1300.39Zm-3.5-23.05a1.179,1.179,0,0,0-1.657,0,1.208,1.208,0,0,0-.343.84,1.172,1.172,0,1,0,2.344,0A1.209,1.209,0,0,0,579.828,1277.34Zm28-.34H584.591a1.18,1.18,0,0,0,0,2.36h22.065v49.28H551.344v-49.28h22.5a1.18,1.18,0,0,0,0-2.36H550.172a1.177,1.177,0,0,0-1.172,1.18v51.64a1.177,1.177,0,0,0,1.172,1.18h57.656a1.177,1.177,0,0,0,1.172-1.18v-51.64A1.177,1.177,0,0,0,607.828,1277Zm-5.654,25.17a1.177,1.177,0,0,0-1.172,1.18v10.72a1.172,1.172,0,1,0,2.344,0v-10.72A1.177,1.177,0,0,0,602.174,1302.17Zm0.828-4.25a1.173,1.173,0,1,0,.344.83A1.178,1.178,0,0,0,603,1297.92Zm-24-10.66a12.97,12.97,0,1,0,12.891,12.97A12.94,12.94,0,0,0,579,1287.26Zm0,23.58a10.615,10.615,0,1,1,10.547-10.61A10.591,10.591,0,0,1,579,1310.84Zm24.18,10.25H573.9a4.937,4.937,0,0,0-4.78-3.77H566.3a4.937,4.937,0,0,0-4.78,3.77h-7.486a1.18,1.18,0,0,0,0,2.36h7.486a4.935,4.935,0,0,0,4.78,3.78h2.812a4.935,4.935,0,0,0,4.78-3.78H603.18A1.18,1.18,0,0,0,603.18,1321.09Zm-34.063,3.78H566.3a2.6,2.6,0,0,1,0-5.19h2.812A2.6,2.6,0,0,1,569.117,1324.87Z" transform="translate(-549 -1277)"/>
</svg>
